<svg xmlns="http://www.w3.org/2000/svg" viewBox="0 0 1200 675" fill="none" stroke-width="1">
  <path stroke="rgba(255,255,255,.07)" d="M298.8 384L304 381.3M304 381.3L320 377.1M320 377.1L336 374.4M336 374.4L352 379.9M352 379.9L354.8 384M298.8 384L304 394.2M304 394.2L309 400M354.8 384L354.8 400M309 400L320 404.5M320 404.5L336 412.3M336 412.3L352 407.6M352 407.6L354.8 400M287 368L288 367.4M288 367.4L304 363.6M304 363.6L320 359.7M320 359.7L336 354.8M336 354.8L352 355M352 355L366.4 368M287 368L275.8 384M366.4 368L368 370.3M368 370.3L373.9 384M9.8 400L16 394.1M16 394.1L32 391.9M32 391.9L39.2 400M275.8 384L277.4 400M373.9 384L374.5 400M9.8 400L11.3 416M39.2 400L43.6 416M277.4 400L288 414.2M288 414.2L292.3 416M374.5 400L371.5 416M11.3 416L16 422M16 422L31.4 432M43.6 416L32.5 432M292.3 416L304 420M304 420L320 431.5M320 431.5L320.6 432M365.2 432L368 426.5M368 426.5L371.5 416M31.4 432L32 432.2M32 432.2L32.5 432M320.6 432L326.8 448M365.2 432L358.2 448M326.8 448L335.2 464M336.8 464L352 457.8M352 457.8L358.2 448M335.2 464L336 464.3M336 464.3L336.8 464M495.5 0L493.3 16M570.1 0L568.7 16M493.3 16L484.2 32M555.9 32L560 26.5M560 26.5L568.7 16M441.9 48L448 45.8M448 45.8L464 40.9M464 40.9L480 34.7M480 34.7L484.2 32M538.4 48L544 43M544 43L555.9 32M422.1 64L432 54.8M432 54.8L441.9 48M523.4 64L528 59.5M528 59.5L538.4 48M422.1 64L416.6 80M523.4 64L513.9 80M413.9 96L416 82.6M416 82.6L416.6 80M508.2 96L512 86M512 86L513.9 80M413.9 96L413.4 112M508.2 96L509.6 112M413.4 112L415.3 128M509.6 112L511.4 128M415.3 128L416 130.2M416 130.2L427.8 144M495.4 144L496 143.6M496 143.6L511.4 128M427.8 144L432 151M432 151L448 156M448 156L449.9 160M495.4 144L484.6 160M449.9 160L452.5 176M484.6 160L485.7 176M430 192L432 187.5M432 187.5L448 178.4M448 178.4L452.5 176M485.7 176L496 183.1M496 183.1L507.9 192M555 192L560 190.6M560 190.6L563.7 192M430 192L421.1 208M507.9 192L512 194.4M512 194.4L528 197.7M528 197.7L544 194.5M544 194.5L555 192M563.7 192L576 196.5M576 196.5L588.1 208M415.3 224L416 221M416 221L421.1 208M588.1 208L592 216.3M592 216.3L595.4 224M415.3 224L415.6 240M581.1 240L592 227.9M592 227.9L595.4 224M415.6 240L416 241.8M416 241.8L421.3 256M511.2 256L512 255.2M512 255.2L528 252.4M528 252.4L544 252.5M544 252.5L560 250.6M560 250.6L576 243.5M576 243.5L581.1 240M421.3 256L426.9 272M511.2 256L501 272M426.9 272L432 284.7M432 284.7L433.4 288M501 272L504.1 288M433.4 288L448 299.3M448 299.3L455.7 304M504.1 288L512 293.2M512 293.2L528 292M528 292L544 294.2M544 294.2L556.9 304M331 320L336 317.1M336 317.1L352 312.1M352 312.1L367.4 320M455.7 304L464 309M464 309L480 319.1M480 319.1L480.7 320M556.9 304L560 307.8M560 307.8L565.6 320M176.5 336L192 328.9M192 328.9L208 333.8M208 333.8L210.7 336M308 336L320 328.7M320 328.7L331 320M367.4 320L368 320.6M368 320.6L374.8 336M480.7 320L484.2 336M565.6 320L566.3 336M1196.7 336L1200 322.9M164.8 352L176 336.7M176 336.7L176.5 336M210.7 336L220.6 352M257 352L272 344.9M272 344.9L288 340.1M288 340.1L304 337.7M304 337.7L308 336M374.8 336L384 351.4M384 351.4L384.4 352M478.7 352L480 349.2M480 349.2L484.2 336M566.3 336L564.2 352M1196.7 336L1187.7 352M0 360.9L16 354.9M16 354.9L32 356M32 356L48 367.8M48 367.8L48.2 368M130.9 368L144 362.2M144 362.2L160 356.3M160 356.3L164.8 352M220.6 352L224 364M224 364L240 362.8M240 362.8L256 352.8M256 352.8L257 352M384.4 352L396.8 368M461.2 368L464 366.6M464 366.6L478.7 352M564.2 352L560.9 368M1182.1 368L1184 361.2M1184 361.2L1187.7 352M48.2 368L62 384M110.2 384L112 382.5M112 382.5L128 369.3M128 369.3L130.9 368M173.6 384L176 377.9M176 377.9L192 372M192 372L208 371.3M208 371.3L224 370.6M224 370.6L231.1 384M396.8 368L400 374.3M400 374.3L412.2 384M434.4 384L448 376.2M448 376.2L461.2 368M554.6 384L560 370.4M560 370.4L560.9 368M1182.1 368L1181.2 384M62 384L64 386.7M64 386.7L80 399.3M80 399.3L96 396.2M96 396.2L110.2 384M173.6 384L169.3 400M231.1 384L233.1 400M412.2 384L416 398.6M416 398.6L432 394.5M432 394.5L434.4 384M541.5 400L544 397.4M544 397.4L554.6 384M1181.2 384L1183.5 400M156.9 416L160 413.1M160 413.1L169.3 400M223.5 416L224 415.1M224 415.1L233.1 400M414.6 416L416 403.2M416 403.2L432 401.7M432 401.7L448 407M448 407L464 406M464 406L480 409.2M480 409.2L495.2 416M520.3 416L528 412.3M528 412.3L541.5 400M1183.5 400L1184 403.1M1184 403.1L1185.5 416M133.5 432L144 423.6M144 423.6L156.9 416M223.5 416L218 432M414.6 416L407 432M495.2 416L496 416.3M496 416.3L512 420.3M512 420.3L520.3 416M1185.5 416L1186.3 432M120.3 448L128 439.3M128 439.3L133.5 432M218 432L222.2 448M397.7 448L400 442.1M400 442.1L407 432M1186.3 432L1186 448M0 458L15.5 464M55.5 464L64 461.1M64 461.1L80 457.4M80 457.4L96 459.7M96 459.7L112 454.7M112 454.7L120.3 448M222.2 448L224 451.1M224 451.1L230.2 464M397.7 448L395 464M1183.1 464L1184 459.8M1184 459.8L1186 448M15.5 464L16 464.2M16 464.2L32 467.2M32 467.2L48 465.8M48 465.8L55.5 464M230.2 464L239 480M395 464L392 480M1183.1 464L1179 480M239 480L240 482.4M240 482.4L249.2 496M375.6 496L384 489.7M384 489.7L392 480M1179 480L1178.4 496M249.2 496L256 500.9M256 500.9L272 509.5M272 509.5L280.2 512M310.9 512L320 509.8M320 509.8L336 505.6M336 505.6L352 502M352 502L368 498.1M368 498.1L375.6 496M1178.4 496L1184 506M1184 506L1187.6 512M280.2 512L288 513.9M288 513.9L304 513.7M304 513.7L310.9 512M1187.6 512L1200 527.5M1196.3 576L1200 571.4M1174.9 592L1184 586.5M1184 586.5L1196.3 576M272.4 608L288 604.9M288 604.9L296.1 608M1160.9 608L1168 600.6M1168 600.6L1174.9 592M249.9 624L256 619.5M256 619.5L272 608.1M272 608.1L272.4 608M296.1 608L304 611.6M304 611.6L312.1 624M1160.9 608L1166.5 624M236.2 640L240 634.5M240 634.5L249.9 624M312.1 624L319.3 640M1166.5 624L1168 625.2M1168 625.2L1184 626.8M1184 626.8L1200 625.6M236.2 640L231 656M319.3 640L320 643M320 643L321.8 656M231 656L231.9 672M321.8 656L321.9 672M231.9 672L237.5 688M319.7 688L320 687M320 687L321.9 672M35 0L48 10.7M48 10.7L64 14.3M64 14.3L80 12.6M80 12.6L96 3.3M96 3.3L98.6 0M483.4 0L480.1 16M595.3 0L594.8 16M456.8 32L464 29.2M464 29.2L480 16.1M480 16.1L480.1 16M594.8 16L599 32M415.3 48L416 47.5M416 47.5L432 40.1M432 40.1L448 34.8M448 34.8L456.8 32M599 32L608 40.2M608 40.2L624 45.9M624 45.9L626.9 48M1196.4 48L1200 38.3M415.3 48L402.6 64M567.5 64L576 60.7M576 60.7L581.5 64M626.9 48L634.4 64M1196.4 48L1189.1 64M399 80L400 73.4M400 73.4L402.6 64M549.1 80L560 67.4M560 67.4L567.5 64M581.5 64L592 69.9M592 69.9L608 76.3M608 76.3L624 75.8M624 75.8L634.4 64M1189.1 64L1184.4 80M399 80L397.2 96M542.2 96L544 90.7M544 90.7L549.1 80M1184.4 80L1184.3 96M397.2 96L396.8 112M542.2 96L544 104.8M544 104.8L546.9 112M1184.3 96L1190.2 112M396.8 112L398.7 128M546.9 112L558.3 128M1190.2 112L1200 126.6M398.7 128L400 133.2M400 133.2L404.1 144M558.3 128L560 130.3M560 130.3L574.1 144M404.1 144L409.8 160M526 160L528 158.2M528 158.2L532.8 160M574.1 144L576 145.8M576 145.8L579.1 160M409.8 160L411.9 176M526 160L528 164.5M528 164.5L532.8 160M579.1 160L582.8 176M411.9 176L410.3 192M582.8 176L592 187.3M592 187.3L595.3 192M410.3 192L407 208M595.3 192L608 204.5M608 204.5L612.8 208M407 208L403 224M612.8 208L622.5 224M403 224L401.3 240M605.9 240L608 237.7M608 237.7L622.5 224M401.3 240L402.1 256M583.2 256L592 249.7M592 249.7L605.9 240M402.1 256L401.8 272M567 272L576 264.2M576 264.2L583.2 256M395.7 288L400 280.4M400 280.4L401.8 272M567 272L570.6 288M1193.9 288L1200 276M334.2 304L336 303M336 303L352 296.7M352 296.7L368 295.9M368 295.9L384 302.9M395.7 288L400 290.8M384 302.9L384.7 304M400 290.8L416 298.1M416 298.1L425 304M570.6 288L576 298.1M576 298.1L578.2 304M1193.9 288L1186.7 304M172.1 320L176 318.1M176 318.1L192 313.6M192 313.6L208 314.7M208 314.7L219.3 320M304.1 320L320 312.8M320 312.8L334.2 304M384.7 304L385.8 320M425 304L432 307.8M432 307.8L448 318.7M448 318.7L450.1 320M578.2 304L584.3 320M1176.1 320L1184 309.2M1184 309.2L1186.7 304M152.1 336L160 329.2M160 329.2L172.1 320M219.3 320L224 323.6M224 323.6L240 334.1M240 334.1L256 329.5M256 329.5L272 325.1M272 325.1L288 322.6M288 322.6L304 320M304 320L304.1 320M385.8 320L389.9 336M450.1 320L458.1 336M584.3 320L585 336M1167.9 336L1168 335.9M1168 335.9L1176.1 320M0 344.5L16 336M16 336L32 337.6M32 337.6L48 351.2M48 351.2L48.7 352M130.6 352L144 343M144 343L152.1 336M389.9 336L400 351.5M400 351.5L400.8 352M441.5 352L448 346.5M448 346.5L458.1 336M585 336L580.7 352M1167.9 336L1163.8 352M48.7 352L63.4 368M108.7 368L112 365.5M112 365.5L128 353.4M128 353.4L130.6 352M400.8 352L416 359.2M416 359.2L432 357M432 357L441.5 352M580.7 352L576.8 368M1163.8 352L1162.6 368M63.4 368L64 368.7M64 368.7L80 381.8M80 381.8L96 378.2M96 378.2L108.7 368M570.9 384L576 370.9M576 370.9L576.8 368M1162.6 368L1164.1 384M558.1 400L560 397.7M560 397.7L570.9 384M1164.1 384L1168 397.2M1168 397.2L1168.7 400M540.7 416L544 412.9M544 412.9L558.1 400M1168.7 400L1173.8 416M526.7 432L528 431.2M528 431.2L540.7 416M986.4 432L992 425.8M992 425.8L1008 424.3M1008 424.3L1015.6 432M1173.8 416L1176.5 432M157.9 448L160 447.1M160 447.1L164.7 448M432 448L432 448M432 448L448 438.9M448 438.9L464 432.3M464 432.3L480 432.8M480 432.8L496 437.9M496 437.9L512 440.8M512 440.8L526.7 432M986.4 432L983.9 448M1015.6 432L1016.8 448M1176.5 432L1176.3 448M133.6 464L144 452.9M144 452.9L157.9 448M164.7 448L176 449.6M176 449.6L192 449.8M192 449.8L208 457.2M208 457.2L212.2 464M432 448L421 464M983.9 448L992 461.1M992 461.1L1008 460.7M1008 460.7L1016.8 448M1176.3 448L1171.9 464M0 470.4L16 475.4M16 475.4L32 478.8M32 478.8L48 478.9M48 478.9L64 477.6M64 477.6L80 477.9M80 477.9L89.8 480M104.5 480L112 478.6M112 478.6L128 468.8M128 468.8L133.6 464M212.2 464L222.2 480M421 464L418.8 480M1165.2 480L1168 474.2M1168 474.2L1171.9 464M89.8 480L96 481.4M96 481.4L104.5 480M222.2 480L224 484.7M224 484.7L228.3 496M415.6 496L416 494.9M416 494.9L418.8 480M1165.2 480L1163.2 496M228.3 496L240 511.1M240 511.1L241.4 512M382.8 512L384 511.9M384 511.9L400 508.7M400 508.7L415.6 496M1163.2 496L1168 505.7M1168 505.7L1171.5 512M241.4 512L256 518.1M256 518.1L272 524M272 524L288 527.6M288 527.6L304 526.4M304 526.4L320 521.4M320 521.4L336 517M336 517L352 514.2M352 514.2L368 512.7M368 512.7L382.8 512M1171.5 512L1184 526.9M1184 526.9L1184.9 528M1184.9 528L1193.4 544M1193.4 544L1191 560M1175.4 576L1184 568.1M1184 568.1L1191 560M257.2 592L272 586.6M272 586.6L288 584M288 584L304 588.4M304 588.4L308.1 592M1146.3 592L1152 589.3M1152 589.3L1168 581.2M1168 581.2L1175.4 576M225.9 608L240 600M240 600L256 592.6M256 592.6L257.2 592M308.1 592L320 606.2M320 606.2L321.1 608M1126.9 608L1136 601.2M1136 601.2L1146.3 592M213.3 624L224 609.7M224 609.7L225.9 608M321.1 608L327 624M1126.9 608L1130.1 624M207 640L208 637M208 637L213.3 624M327 624L330 640M1130.1 624L1136 633M1136 633L1140 640M207 640L204 656M330 640L331.6 656M1140 640L1145.8 656M1184.3 656L1200 646.2M204 656L206.4 672M331.6 656L332.3 672M1145.8 656L1149 672M1167.2 672L1168 671.9M1168 671.9L1184 656.4M1184 656.4L1184.3 656M206.4 672L208 674.9M208 674.9L214.4 688M332.3 672L332.1 688M1149 672L1152 673.9M1152 673.9L1167.2 672M7 0L16 9M16 9L21.7 16M101 16L112 2M112 2L113.4 0M469.5 0L464.2 16M617.2 0L616.4 16M1196.6 0L1193 16M21.7 16L32 20.8M32 20.8L48 26.9M48 26.9L64 31.2M64 31.2L80 32M80 32L96 22.7M96 22.7L101 16M421.1 32L432 27.6M432 27.6L448 22.5M448 22.5L464 16.2M464 16.2L464.2 16M616.4 16L624 23.3M624 23.3L640 31M640 31L641.4 32M1193 16L1187.5 32M397 48L400 44M400 44L416 34M416 34L421.1 32M641.4 32L649.7 48M1177.8 48L1184 38.9M1184 38.9L1187.5 32M397 48L391.6 64M649.7 48L650.9 64M1161.5 64L1168 60.4M1168 60.4L1177.8 48M391.6 64L389 80M650.9 64L650.3 80M1130.7 80L1136 77.4M1136 77.4L1152 70.7M1152 70.7L1161.5 64M389 80L386.7 96M617.5 96L624 94.6M624 94.6L640 93.5M640 93.5L650.3 80M1130.7 80L1124.6 96M386.7 96L386 112M598.4 112L608 100.1M608 100.1L617.5 96M1124.6 96L1132.5 112M386 112L388.2 128M598.4 112L599.4 128M1132.5 112L1136 115.2M1136 115.2L1152 126.8M1152 126.8L1154.1 128M388.2 128L392.3 144M599.4 128L600.6 144M1154.1 128L1168 131.7M1168 131.7L1184 142.3M1184 142.3L1185.4 144M392.3 144L396.8 160M600.6 144L601.5 160M1185.4 144L1195.4 160M396.8 160L399 176M601.5 160L603 176M1195.4 160L1200 170.8M399 176L398.6 192M603 176L608 182.9M608 182.9L617.1 192M398.6 192L396.9 208M617.1 192L624 197.1M624 197.1L634.5 208M396.9 208L394.3 224M634.5 208L638.5 224M4.5 240L16 232M16 232L24.8 240M394.3 224L391.9 240M638.5 224L628.9 240M0 242.4L4.5 240M24.8 240L29.4 256M391.9 240L388.1 256M604 256L608 253.1M608 253.1L624 243.6M624 243.6L628.9 240M1199.6 256L1200 255.2M29.4 256L30.4 272M376.4 272L384 264M384 264L388.1 256M589 272L592 268.6M592 268.6L604 256M1199.6 256L1191.3 272M30.4 272L32 279.7M32 279.7L32.9 288M219.7 288L224 282.3M224 282.3L240 272.3M240 272.3L256 282.7M256 282.7L261.1 288M343.2 288L352 283.5M352 283.5L368 277.6M368 277.6L376.4 272M589 272L588.8 288M1182.7 288L1184 285.8M1184 285.8L1191.3 272M32.9 288L36.3 304M180.4 304L192 301M192 301L208 297.6M208 297.6L219.7 288M261.1 288L272 300.7M272 300.7L278.9 304M311.2 304L320 300.7M320 300.7L336 291.5M336 291.5L343.2 288M588.8 288L592 295.9M592 295.9L595.1 304M1182.7 288L1171.1 304M36.3 304L43.2 320M146.8 320L160 312.3M160 312.3L176 305.1M176 305.1L180.4 304M278.9 304L288 307.3M288 307.3L304 307.3M304 307.3L311.2 304M595.1 304L602.8 320M1151.1 320L1152 319.7M1152 319.7L1168 307.9M1168 307.9L1171.1 304M43.2 320L48 326.8M48 326.8L53.9 336M126.8 336L128 335M128 335L144 322.4M144 322.4L146.8 320M602.8 320L603.9 336M1116.4 336L1120 334.2M1120 334.2L1136 329.9M1136 329.9L1151.1 320M53.9 336L64 347.8M64 347.8L68.7 352M105.5 352L112 347.4M112 347.4L126.8 336M603.9 336L595.1 352M1116.4 336L1120 338.5M1120 338.5L1135.2 352M68.7 352L80 361.6M80 361.6L96 358.9M96 358.9L105.5 352M587.7 368L592 357.9M592 357.9L595.1 352M1135.2 352L1136 352.6M1136 352.6L1143.8 368M587.7 368L582.4 384M1143.8 368L1148.2 384M574 400L576 397.5M576 397.5L582.4 384M1148.2 384L1152 398.1M1152 398.1L1152.6 400M554.2 416L560 410.6M560 410.6L574 400M890.1 416L896 409.9M896 409.9L912 407.3M912 407.3L923.5 416M965.4 416L976 406.9M976 406.9L992 403.2M992 403.2L1008 402.6M1008 402.6L1024 404.4M1024 404.4L1035.9 416M1152.6 400L1159.3 416M540.1 432L544 427.5M544 427.5L554.2 416M890.1 416L881.2 432M923.5 416L927.4 432M965.4 416L962.9 432M1035.9 416L1036.9 432M1159.3 416L1165.2 432M540.1 432L529.6 448M881.2 432L881.2 448M927.4 432L928 437.8M928 437.8L929.7 448M962.9 432L960.6 448M1036.9 432L1035.9 448M1165.2 432L1165.2 448M443.1 464L448 459.9M448 459.9L464 452.8M464 452.8L480 451.8M480 451.8L496 453.6M496 453.6L512 454.5M512 454.5L528 449.3M528 449.3L529.6 448M881.2 448L894.7 464M929.7 448L944 459.3M944 459.3L960 449.2M960 449.2L960.6 448M1035.9 448L1027.2 464M1165.2 448L1157.8 464M149.9 480L160 475.9M160 475.9L176 475.2M176 475.2L192 475.3M192 475.3L199.9 480M443.1 464L433.3 480M894.7 464L896 465.2M896 465.2L912 472.5M912 472.5L919.3 480M1010.7 480L1024 467.9M1024 467.9L1027.2 464M1151.2 480L1152 477.6M1152 477.6L1157.8 464M0 481.7L16 487.1M16 487.1L32 491.2M32 491.2L48 492.7M48 492.7L64 493.7M64 493.7L78 496M122.7 496L128 493.6M128 493.6L144 482.5M144 482.5L149.9 480M199.9 480L208 489M208 489L210.7 496M428.5 496L432 484.4M432 484.4L433.3 480M919.3 480L926.8 496M968.7 496L976 490.8M976 490.8L992 484.5M992 484.5L1008 482.3M1008 482.3L1010.7 480M1151.2 480L1149.8 496M78 496L80 496.4M80 496.4L96 501.3M96 501.3L112 500.1M112 500.1L122.7 496M210.7 496L214.6 512M428.5 496L422.6 512M926.8 496L928 497.7M928 497.7L944 504.6M944 504.6L960 500.3M960 500.3L968.7 496M1149.8 496L1152 504.1M1152 504.1L1155.3 512M214.6 512L224 522.9M224 522.9L240 527.6M240 527.6L241.1 528M333.9 528L336 527.4M336 527.4L352 524.5M352 524.5L368 524.3M368 524.3L384 526.7M384 526.7L396.3 528M401.5 528L416 522M416 522L422.6 512M1155.3 512L1168 526.1M1168 526.1L1169.6 528M241.1 528L256 534M256 534L272 541.4M272 541.4L281.4 544M297.8 544L304 543M304 543L320 534.2M320 534.2L333.9 528M396.3 528L400 528.6M400 528.6L401.5 528M1169.6 528L1178.7 544M281.4 544L288 554.8M288 554.8L297.8 544M1178.7 544L1175.3 560M252.9 576L256 574.7M256 574.7L272 565.9M272 565.9L288 561.2M288 561.2L304 566.9M304 566.9L311.4 576M1152.2 576L1168 566.8M1168 566.8L1175.3 560M210 592L224 583.6M224 583.6L240 580M240 580L252.9 576M311.4 576L320 583.5M320 583.5L327.7 592M1114.4 592L1120 589.5M1120 589.5L1136 582.6M1136 582.6L1152 576.1M1152 576.1L1152.2 576M195.1 608L208 593.6M208 593.6L210 592M327.7 592L336 607M336 607L336.5 608M1098.8 608L1104 599M1104 599L1114.4 592M185 624L192 613.8M192 613.8L195.1 608M336.5 608L339.6 624M1098.8 608L1100 624M185 624L180.3 640M339.6 624L340.5 640M1100 624L1104 630.9M1104 630.9L1114.4 640M180.3 640L178 656M340.5 640L341.1 656M1114.4 640L1120 649.4M1120 649.4L1122.4 656M178 656L181.5 672M341.1 656L342.2 672M1103.9 672L1104 672M1104 672L1120 660M1120 660L1122.4 656M181.5 672L192 686.2M192 686.2L193.1 688M342.2 672L343.5 688M1082.7 688L1088 681.9M1088 681.9L1103.9 672M1182.7 688L1184 687.3M1184 687.3L1200 676.6M127.2 0L115.7 16M423.6 16L432 8.7M432 8.7L442.5 0M696.9 16L704 4.6M704 4.6L707.9 0M847.5 0L848 0.4M848 0.4L864 3.3M864 3.3L879.7 0M1180.8 16L1184 2M1184 2L1184.4 0M0 28.3L16 30.5M16 30.5L20.4 32M104.5 32L112 21.8M112 21.8L115.7 16M396 32L400 27.9M400 27.9L416 18.5M416 18.5L423.6 16M678.4 32L688 22.8M688 22.8L696.9 16M1180.8 16L1172.9 32M20.4 32L32 34.9M32 34.9L48 40.4M48 40.4L64 46.9M64 46.9L69.7 48M84.8 48L96 42.2M96 42.2L104.5 32M396 32L385.5 48M666.5 48L672 39M672 39L678.4 32M1153.7 48L1168 38.5M1168 38.5L1172.9 32M69.7 48L80 50.1M80 50.1L84.8 48M381.9 64L384 53.9M384 53.9L385.5 48M666.5 48L664.1 64M1110.1 64L1120 60.2M1120 60.2L1136 55.5M1136 55.5L1152 49.1M1152 49.1L1153.7 48M381.9 64L379.4 80M664.1 64L667.8 80M1095.5 80L1104 68.8M1104 68.8L1110.1 64M379.4 80L376.6 96M667.8 80L672 86.3M672 86.3L677.5 96M1095.5 80L1093.8 96M376.6 96L375.5 112M677.5 96L682.5 112M1093.8 96L1100.5 112M375.5 112L378.1 128M682.5 112L678.6 128M1100.5 112L1104 116.1M1104 116.1L1115.5 128M378.1 128L382 144M660.2 144L672 138M672 138L678.6 128M1115.5 128L1120 130.6M1120 130.6L1136 137.9M1136 137.9L1152 142.9M1152 142.9L1155.7 144M382 144L384 151.1M384 151.1L386.6 160M630.1 160L640 149.6M640 149.6L656 147.1M656 147.1L660.2 144M1155.7 144L1168 147.4M1168 147.4L1182 160M386.6 160L389.5 176M630.1 160L628.1 176M1182 160L1184 163M1184 163L1190.4 176M389.5 176L390.3 192M628.1 176L640 186.6M640 186.6L642.5 192M1190.4 176L1196.7 192M390.3 192L389.3 208M642.5 192L648 208M1196.7 192L1200 204.6M0 212.3L16 209.8M16 209.8L32 215.7M32 215.7L39.8 224M389.3 208L386.8 224M648 208L648.7 224M39.8 224L44.7 240M383 240L384 236.1M384 236.1L386.8 224M648.7 224L644.6 240M1195.3 240L1200 225.8M44.7 240L46.7 256M223.3 256L224 255.5M224 255.5L240 255.1M240 255.1L241.1 256M383 240L375.3 256M625.3 256L640 246.5M640 246.5L644.6 240M1195.3 240L1188.2 256M46.7 256L48 270.7M48 270.7L48.1 272M223.3 256L209.7 272M241.1 256L256 266.8M256 266.8L260.6 272M351.2 272L352 271.6M352 271.6L368 263.5M368 263.5L375.3 256M605.8 272L608 269.7M608 269.7L624 256.7M624 256.7L625.3 256M1180.1 272L1184 264.6M1184 264.6L1188.2 256M48.1 272L50.5 288M189.2 288L192 286.9M192 286.9L208 274.3M208 274.3L209.7 272M260.6 272L272 283.6M272 283.6L277.9 288M323.8 288L336 280.8M336 280.8L351.2 272M605.8 272L603.9 288M1180.1 272L1170.2 288M50.5 288L55.5 304M148.1 304L160 297.3M160 297.3L176 290.8M176 290.8L189.2 288M277.9 288L288 294.9M288 294.9L304 296.4M304 296.4L320 290.3M320 290.3L323.8 288M603.9 288L608 297.7M608 297.7L610.8 304M1147.6 304L1152 302M1152 302L1168 290.9M1168 290.9L1170.2 288M55.5 304L64 319.7M64 319.7L64.3 320M118.4 320L128 314.9M128 314.9L144 306.2M144 306.2L148.1 304M610.8 304L619.1 320M1099.6 320L1104 317M1104 317L1120 313M1120 313L1136 309.2M1136 309.2L1147.6 304M64.3 320L80 334.8M80 334.8L96 334.4M96 334.4L112 325M112 325L118.4 320M619.1 320L620.2 336M1099.6 320L1090.4 336M620.2 336L608.6 352M1090.4 336L1091.4 352M597.8 368L608 352.6M608 352.6L608.6 352M1091.4 352L1104 359.9M1104 359.9L1120 365.4M1120 365.4L1123 368M591.8 384L592 383.6M592 383.6L597.8 368M904 384L912 381.5M912 381.5L928 382.2M928 382.2L944 383.6M944 383.6L960 382.8M960 382.8L976 383.4M976 383.4L982.9 384M1006.8 384L1008 383.9M1008 383.9L1024 380.2M1024 380.2L1040 375.7M1040 375.7L1056 371.6M1056 371.6L1072 374.5M1072 374.5L1076.1 384M1123 368L1133.9 384M591.8 384L585.6 400M880.8 400L896 386.8M896 386.8L904 384M982.9 384L992 384.7M992 384.7L1006.8 384M1076.1 384L1073.8 400M1133.9 384L1136 392.8M1136 392.8L1137.5 400M568.9 416L576 410.7M576 410.7L585.6 400M872 416L880 400.9M880 400.9L880.8 400M1067 416L1072 405.6M1072 405.6L1073.8 400M1137.5 400L1139.1 416M551.8 432L560 422.9M560 422.9L568.9 416M872 416L869 432M1067 416L1058 432M1139.1 416L1141.1 432M542.6 448L544 445.8M544 445.8L551.8 432M869 432L869.2 448M1054.3 448L1056 438.3M1056 438.3L1058 432M1141.1 432L1142.5 448M515.1 464L528 460.4M528 460.4L542.6 448M869.2 448L876.4 464M1054.3 448L1043.8 464M1142.5 448L1140.3 464M446.5 480L448 477.9M448 477.9L464 467.5M464 467.5L480 464.9M480 464.9L496 464.8M496 464.8L512 464.7M512 464.7L515.1 464M876.4 464L880 469.8M880 469.8L891.6 480M1030.2 480L1040 467.8M1040 467.8L1043.8 464M1140.3 464L1139.5 480M0 493.3L7.6 496M446.5 480L440 496M891.6 480L896 486.4M896 486.4L903.3 496M1014 496L1024 487.7M1024 487.7L1030.2 480M1139.5 480L1139.4 496M7.6 496L16 499.1M16 499.1L32 503.4M32 503.4L48 506.3M48 506.3L64 509.8M64 509.8L70.7 512M137.8 512L144 509.3M144 509.3L160 509M160 509L165.6 512M440 496L436.4 512M903.3 496L905 512M972.7 512L976 510.4M976 510.4L992 503.7M992 503.7L1008 501.4M1008 501.4L1014 496M1139.4 496L1141.2 512M70.7 512L80 515.8M80 515.8L96 522.2M96 522.2L112 520.9M112 520.9L128 515.5M128 515.5L137.8 512M165.6 512L173.6 528M431.3 528L432 526.7M432 526.7L436.4 512M895.1 528L896 526.2M896 526.2L905 512M928.4 528L944 522.9M944 522.9L960 517.4M960 517.4L972.7 512M1141.2 512L1148.5 528M173.6 528L176 536.7M176 536.7L178 544M329.6 544L336 540.8M336 540.8L352 536.8M352 536.8L368 538.2M368 538.2L383.2 544M431.3 528L418.1 544M895.1 528L889.4 544M914.9 544L928 528.3M928 528.3L928.4 528M1148.5 528L1152 532.5M1152 532.5L1160.7 544M178 544L185.4 560M329.6 544L322.7 560M383.2 544L384 544.7M384 544.7L400 552.7M400 552.7L416 546.1M416 546.1L418.1 544M889.4 544L889 560M914.9 544L914.4 560M1160.7 544L1154.2 560M185.4 560L185.5 576M322.7 560L333.4 576M889 560L887.5 576M914.4 560L920.1 576M1110.4 576L1120 571.2M1120 571.2L1136 566.1M1136 566.1L1152 561.3M1152 561.3L1154.2 560M161.9 592L176 587.1M176 587.1L185.5 576M333.4 576L336 579M336 579L348.5 592M887.5 576L892.7 592M920.1 576L920.6 592M1092.4 592L1104 578.6M1104 578.6L1110.4 576M135.7 608L144 596.9M144 596.9L160 592.6M160 592.6L161.9 592M348.5 592L352 602.1M352 602.1L353.7 608M892.7 592L896 595.9M896 595.9L912 597.3M912 597.3L920.6 592M1085.1 608L1088 600.4M1088 600.4L1092.4 592M135.7 608L139.1 624M353.7 608L352.4 624M1085.1 608L1082.6 624M139.1 624L143.7 640M350.8 640L352 627.2M352 627.2L352.4 624M1082.6 624L1082.1 640M143.7 640L144 641.9M144 641.9L146.1 656M350.8 640L350.5 656M1082.1 640L1080.7 656M146.1 656L152.7 672M350.5 656L351.9 672M1069.8 672L1072 666.9M1072 666.9L1080.7 656M152.7 672L160 678.4M160 678.4L168.8 688M351.9 672L352 673M352 673L354.7 688M1069.8 672L1060.6 688M151 16L160 8M160 8L168.7 0M351.4 0L351.7 16M759.9 16L768 6.3M768 6.3L778.7 0M787.9 0L800 10.9M800 10.9L802.5 16M923.6 0L919.7 16M1149.9 16L1152 12.1M1152 12.1L1157 0M136.6 32L144 23.1M144 23.1L151 16M351.7 16L352 16.8M352 16.8L358.1 32M731.7 32L736 29.6M736 29.6L752 21.7M752 21.7L759.9 16M802.5 16L811.6 32M893.6 32L896 31.4M896 31.4L912 24.5M912 24.5L919.7 16M1124.8 32L1136 26.5M1136 26.5L1149.9 16M123.5 48L128 41.4M128 41.4L136.6 32M358.1 32L361.3 48M706.3 48L720 38.3M720 38.3L731.7 32M811.6 32L816 35.4M816 35.4L832 41.7M832 41.7L848 43.7M848 43.7L864 40M864 40L880 35.2M880 35.2L893.6 32M1081.5 48L1088 44.5M1088 44.5L1104 38.5M1104 38.5L1120 33.8M1120 33.8L1124.8 32M108.7 64L112 60.8M112 60.8L123.5 48M361.3 48L360.7 64M696.2 64L704 51.1M704 51.1L706.3 48M1065 64L1072 55.8M1072 55.8L1081.5 48M18.5 80L32 69.8M32 69.8L48 73.3M48 73.3L64 79.3M64 79.3L70.4 80M82.5 80L96 74.7M96 74.7L108.7 64M360.7 64L356.3 80M696.2 64L697.3 80M1065 64L1059.3 80M7.4 96L16 82.2M16 82.2L18.5 80M70.4 80L80 81.1M80 81.1L82.5 80M349.8 96L352 92.3M352 92.3L356.3 80M697.3 80L700.1 96M1059.3 80L1057.9 96M0 110L7.4 96M349.8 96L347 112M700.1 96L701 112M1057.9 96L1060 112M347 112L352 121.7M352 121.7L354 128M701 112L699.3 128M1060 112L1065.6 128M354 128L360.3 144M699.3 128L694.9 144M1065.6 128L1072 137.4M1072 137.4L1079.8 144M0 156.1L1.1 160M360.3 144L366.6 160M687.9 160L688 159.9M688 159.9L694.9 144M1079.8 144L1088 148.7M1088 148.7L1104 155.6M1104 155.6L1113.7 160M1.1 160L8.2 176M366.6 160L368 163.9M368 163.9L371.1 176M687.9 160L683.8 176M1113.7 160L1120 163.2M1120 163.2L1136 168.4M1136 168.4L1152 173.1M1152 173.1L1157.7 176M8.2 176L16 182.9M16 182.9L31.6 192M371.1 176L374.2 192M683.8 176L678.2 192M1157.7 176L1168 184.5M1168 184.5L1171.5 192M31.6 192L32 192.2M32 192.2L48 198.4M48 198.4L58.1 208M374.2 192L374.9 208M671.4 208L672 205.9M672 205.9L678.2 192M1171.5 192L1175.3 208M58.1 208L64 222.1M64 222.1L64.8 224M131.3 224L144 215.1M144 215.1L160 211.6M160 211.6L176 212.1M176 212.1L192 213.6M192 213.6L208 209.7M208 209.7L224 211.2M224 211.2L240 220.3M240 220.3L243.3 224M374.9 208L372.8 224M671.4 208L668.6 224M1175.3 208L1173.9 224M64.8 224L71.5 240M121.7 240L128 228.9M128 228.9L131.3 224M243.3 224L256 237.4M256 237.4L258.6 240M366.1 240L368 236.8M368 236.8L372.8 224M668.6 224L669.3 240M1173.9 224L1168.8 240M71.5 240L76.1 256M121.7 240L122.7 256M258.6 240L272 255.4M272 255.4L272.5 256M345.1 256L352 252.5M352 252.5L366.1 240M669.3 240L672 247.9M672 247.9L676 256M877 256L880 249.8M880 249.8L896 241.7M896 241.7L912 243.9M912 243.9L916.6 256M1157.2 256L1168 241.9M1168 241.9L1168.8 240M76.1 256L80 270.4M80 270.4L82.1 272M122.7 256L122.8 272M272.5 256L286.7 272M316.6 272L320 270.4M320 270.4L336 260.7M336 260.7L345.1 256M676 256L679.2 272M877 256L874.4 272M916.6 256L916.5 272M1143.1 272L1152 261.9M1152 261.9L1157.2 256M82.1 272L96 279.5M96 279.5L112 278.3M112 278.3L122.8 272M286.7 272L288 273M288 273L304 276.5M304 276.5L316.6 272M665.5 288L672 284.9M672 284.9L679.2 272M874.4 272L878.1 288M916.5 272L915.7 288M1120.1 288L1136 277.6M1136 277.6L1143.1 272M648.7 304L656 294M656 294L665.5 288M878.1 288L880 292.3M880 292.3L891 304M915.7 288L912.8 304M1077.9 304L1088 297.4M1088 297.4L1104 292.3M1104 292.3L1120 288M1120 288L1120.1 288M648.7 304L648.1 320M891 304L896 310.4M896 310.4L912 307.4M912 307.4L912.8 304M1066.9 320L1072 311.6M1072 311.6L1077.9 304M648.1 320L646.7 336M907.4 336L912 328.1M912 328.1L928 325.4M928 325.4L944 327.8M944 327.8L960 332.5M960 332.5L966.9 336M1066.9 320L1060.3 336M636 352L640 346.3M640 346.3L646.7 336M886.7 352L896 342.2M896 342.2L907.4 336M966.9 336L976 340.1M976 340.1L992 345.9M992 345.9L1008 345.1M1008 345.1L1024 345.6M1024 345.6L1040 345.2M1040 345.2L1056 340.2M1056 340.2L1060.3 336M618.3 368L624 362M624 362L636 352M868.2 368L880 356.8M880 356.8L886.7 352M618.3 368L608.1 384M851.4 384L864 371.7M864 371.7L868.2 368M605.5 400L608 384.4M608 384.4L608.1 384M844.2 400L848 390.9M848 390.9L851.4 384M605.5 400L605.1 416M844.2 400L844.1 416M605.1 416L595.4 432M844.1 416L845.5 432M569.2 448L576 439.3M576 439.3L592 433M592 433L595.4 432M845.5 432L846.2 448M557.1 464L560 459.8M560 459.8L569.2 448M846.2 448L848 452.4M848 452.4L851.9 464M530.2 480L544 475.1M544 475.1L557.1 464M851.9 464L859.6 480M475.5 496L480 493.6M480 493.6L496 487.9M496 487.9L512 484.8M512 484.8L528 480.8M528 480.8L530.2 480M859.6 480L864 494M864 494L864.7 496M1059.7 496L1072 489.9M1072 489.9L1088 485.4M1088 485.4L1104 489.8M1104 489.8L1107.5 496M475.5 496L468.3 512M862.6 512L864 501.1M864 501.1L864.7 496M1059.7 496L1072 509.4M1072 509.4L1088 508.1M1088 508.1L1104 501.1M1104 501.1L1107.5 496M0 520.4L16 522.8M16 522.8L32 526.3M32 526.3L37.2 528M468.3 512L468.7 528M862.6 512L856.9 528M37.2 528L48 532.7M48 532.7L64 543.4M64 543.4L64.8 544M463.2 544L464 541M464 541L468.7 528M856.9 528L852.8 544M64.8 544L80 557.9M80 557.9L83.6 560M463.2 544L450.2 560M852.8 544L853.5 560M83.6 560L96 573.3M96 573.3L98 576M430.6 576L432 575.1M432 575.1L448 561.9M448 561.9L450.2 560M853.5 560L855.7 576M1037.1 576L1040 573.7M1040 573.7L1056 575.3M1056 575.3L1056.6 576M98 576L100.7 592M402.4 592L416 584.4M416 584.4L430.6 576M855.7 576L860 592M1037.1 576L1031.5 592M1056.6 576L1062.1 592M100.7 592L101.8 608M388.3 608L400 593.8M400 593.8L402.4 592M860 592L864 601.7M864 601.7L866.9 608M1031.5 592L1034.8 608M1062.1 592L1057.6 608M101.8 608L101.5 624M379.2 624L384 614.4M384 614.4L388.3 608M866.9 608L876.4 624M1034.8 608L1040 617M1040 617L1056 611.2M1056 611.2L1057.6 608M101.5 624L99.1 640M379.2 624L373.3 640M876.4 624L880 631.5M880 631.5L886.5 640M922.7 640L928 636.7M928 636.7L944 630.2M944 630.2L960 630M960 630L976 634.5M976 634.5L985.8 640M99.1 640L97.5 656M373.3 640L371 656M886.5 640L894.4 656M903.8 656L912 652.7M912 652.7L922.7 640M985.8 640L992 650.1M992 650.1L997.2 656M97.5 656L100.4 672M371 656L373.1 672M894.4 656L896 658.4M896 658.4L903.8 656M991.4 672L992 669.4M992 669.4L997.2 656M100.4 672L112 684.1M112 684.1L116.5 688M373.1 672L380.4 688M956.6 688L960 687.2M960 687.2L976 681.2M976 681.2L991.4 672M176.5 16L192 2.2M192 2.2L195 0M327.6 0L330.4 16M938 0L935 16M1126.4 16L1136 4.8M1136 4.8L1138.8 0M160.4 32L176 16.4M176 16.4L176.5 16M330.4 16L332.3 32M935 16L928.7 32M1083 32L1088 30M1088 30L1104 24.9M1104 24.9L1120 19.4M1120 19.4L1126.4 16M143 48L144 46.9M144 46.9L160 32.3M160 32.3L160.4 32M332.3 32L335.7 48M730.1 48L736 44.6M736 44.6L752 42.4M752 42.4L765 48M874.6 48L880 46M880 46L896 41.7M896 41.7L912 39.6M912 39.6L928 32.9M928 32.9L928.7 32M1055.9 48L1056 47.9M1056 47.9L1072 36.6M1072 36.6L1083 32M124.9 64L128 60.6M128 60.6L143 48M335.7 48L336 57.7M336 57.7L336.2 64M715 64L720 57.6M720 57.6L730.1 48M765 48L768 50.2M768 50.2L782.4 64M808.7 64L816 62.6M816 62.6L832 61.8M832 61.8L848 63.3M848 63.3L864 55.1M864 55.1L874.6 48M1055.9 48L1045.9 64M107.8 80L112 76.5M112 76.5L124.9 64M327.9 80L336 64.4M336 64.4L336.2 64M715 64L710.9 80M782.4 64L784 65.3M784 65.3L800 65.8M800 65.8L808.7 64M1045.9 64L1043.5 80M30.1 96L32 94.3M32 94.3L48 93M48 93L60 96M84.2 96L96 90.9M96 90.9L107.8 80M327.9 80L322.2 96M710.9 80L709.9 96M1043.5 80L1043.9 96M30.1 96L16.8 112M60 96L64 97.3M64 97.3L80 98.8M80 98.8L84.2 96M322.2 96L323.2 112M709.9 96L709.3 112M1043.9 96L1046.1 112M13 128L16 114.7M16 114.7L16.8 112M323.2 112L335.1 128M709.3 112L708.1 128M1046.1 112L1049.8 128M13 128L13.8 144M335.1 128L336 129M336 129L346.3 144M708.1 128L706 144M1049.8 128L1056 143.3M1056 143.3L1056.4 144M13.8 144L16 152.5M16 152.5L18.5 160M71.6 160L80 155.3M80 155.3L86.8 160M346.3 144L352 153.9M352 153.9L354.7 160M703.5 160L704 157.7M704 157.7L706 144M1056.4 144L1071.6 160M18.5 160L27.5 176M56.8 176L64 166.3M64 166.3L71.6 160M86.8 160L96 169.6M96 169.6L100.9 176M354.7 160L360.9 176M703.5 160L702.2 176M895 176L896 175.7M896 175.7L896.4 176M1071.6 160L1072 160.3M1072 160.3L1088 166.8M1088 166.8L1104 172.4M1104 172.4L1111.3 176M27.5 176L32 178.8M32 178.8L48 180.6M48 180.6L56.8 176M94 192L96 188.8M96 188.8L100.9 176M137.1 192L144 190M144 190L160 184.1M160 184.1L176 178.3M176 178.3L192 177.2M192 177.2L208 183.3M208 183.3L224 192M224 192L224 192M360.9 176L365.9 192M702.2 176L697.4 192M875 192L880 181.4M880 181.4L895 176M896.4 176L912 187.1M912 187.1L922.6 192M1111.3 176L1120 182.3M1120 182.3L1136 190.1M1136 190.1L1140 192M78.2 208L80 203.6M80 203.6L94 192M113.6 208L128 195.8M128 195.8L137.1 192M224 192L240 203.1M240 203.1L244.7 208M365.9 192L367.9 208M697.4 192L689.2 208M875 192L868.2 208M922.6 192L928 193.7M928 193.7L944 200.2M944 200.2L954.8 208M1140 192L1152 204.9M1152 204.9L1153.6 208M78.2 208L80 217M80 217L87.9 224M98.7 224L112 209.8M112 209.8L113.6 208M244.7 208L256 220.7M256 220.7L259.4 224M367.9 208L365.2 224M683.6 224L688 210.7M688 210.7L689.2 208M863.4 224L864 221.8M864 221.8L868.2 208M954.8 208L960 212.5M960 212.5L973.9 224M1147.1 224L1152 214.5M1152 214.5L1153.6 208M87.9 224L96 226.5M96 226.5L98.7 224M259.4 224L272 236.8M272 236.8L275.8 240M365.2 224L355.1 240M683.6 224L685.6 240M863.4 224L860.6 240M973.9 224L972 240M1131.5 240L1136 235.1M1136 235.1L1147.1 224M275.8 240L288 256M323.2 256L336 250.3M336 250.3L352 242.8M352 242.8L355.1 240M685.6 240L688 244.7M688 244.7L693.4 256M860.6 240L858.7 256M943.3 256L944 255.5M944 255.5L960 247.2M960 247.2L972 240M1131.5 240L1123.8 256M288 256L288 256M288 256L304 262.7M304 262.7L320 257.7M320 257.7L323.2 256M693.4 256L695.2 272M858.7 256L859.7 272M943.3 256L932.3 272M1111.7 272L1120 261.3M1120 261.3L1123.8 256M687.2 288L688 286.6M688 286.6L695.2 272M859.7 272L864 287.9M864 287.9L864 288M932.3 272L933.3 288M1064 288L1072 283.8M1072 283.8L1088 279.7M1088 279.7L1104 275.6M1104 275.6L1111.7 272M687.2 288L674.2 304M864 288L870.4 304M933.3 288L944 302.1M944 302.1L949.7 304M1048.6 304L1056 296M1056 296L1064 288M663.6 320L672 307.4M672 307.4L674.2 304M870.4 304L876.4 320M949.7 304L960 306.7M960 306.7L976 311.7M976 311.7L992 316.6M992 316.6L1008 315.3M1008 315.3L1024 315.7M1024 315.7L1040 314M1040 314L1048.6 304M663.6 320L660.1 336M876.4 320L876.3 336M651.4 352L656 344M656 344L660.1 336M876.3 336L866.2 352M632 368L640 361.5M640 361.5L651.4 352M849.9 368L864 354.1M864 354.1L866.2 352M618.2 384L624 375.4M624 375.4L632 368M835.1 384L848 369.8M848 369.8L849.9 368M618.2 384L616.3 400M829 400L832 391.5M832 391.5L835.1 384M616.3 400L621.3 416M829 400L829 416M621.3 416L624 422.5M624 422.5L627.8 432M829 416L830.6 432M622.5 448L624 445.3M624 445.3L627.8 432M830.6 432L831 448M582.5 464L592 461.2M592 461.2L608 460.4M608 460.4L622.5 448M831 448L832 450.6M832 450.6L837.2 464M562.3 480L576 465.9M576 465.9L582.5 464M837.2 464L846.5 480M524.4 496L528 495.2M528 495.2L544 491M544 491L560 481.9M560 481.9L562.3 480M846.5 480L848 483.7M848 483.7L851.7 496M507.1 512L512 507.1M512 507.1L524.4 496M851.7 496L849.6 512M507.1 512L509.7 528M842.9 528L848 516.2M848 516.2L849.6 512M0 535.8L16 535.4M16 535.4L32 538.8M32 538.8L42.5 544M509.7 528L496.9 544M842.9 528L838.6 544M42.5 544L48 548.1M48 548.1L60.5 560M471.2 560L480 552.4M480 552.4L496 544.3M496 544.3L496.9 544M838.6 544L839.7 560M60.5 560L64 564.7M64 564.7L73.1 576M451 576L464 564.8M464 564.8L471.2 560M839.7 560L842.6 576M73.1 576L80 589.2M80 589.2L81.4 592M427 592L432 589M432 589L448 578.2M448 578.2L451 576M842.6 576L848 592M81.4 592L84.6 608M405.3 608L416 599.4M416 599.4L427 592M848 592L848 592M848 592L854.2 608M84.6 608L82.1 624M391.8 624L400 612.8M400 612.8L405.3 608M854.2 608L864 623M864 623L864.6 624M30.7 640L32 639.7M32 639.7L48 639.7M48 639.7L55.1 640M65.7 640L80 629.5M80 629.5L82.1 624M383.9 640L384 639.7M384 639.7L391.8 624M864.6 624L873.4 640M5.9 656L16 646.1M16 646.1L30.7 640M55.1 640L64 641.2M64 641.2L65.7 640M383.9 640L380.6 656M873.4 640L878.4 656M935.6 656L944 649.5M944 649.5L960 654.6M960 654.6L961.4 656M5.9 656L0.6 672M380.6 656L383.4 672M878.4 656L880 661.9M880 661.9L886 672M935.6 656L944 671.1M944 671.1L960 658.6M960 658.6L961.4 656M0 676.1L0.6 672M60.4 688L64 683.6M64 683.6L80 681.9M80 681.9L85.5 688M383.4 672L384 673.1M384 673.1L394.2 688M886 672L896 680.7M896 680.7L909.5 688M208.3 16L224 7.4M224 7.4L240 0.9M240 0.9L242.9 0M302.6 0L304 1.1M304 1.1L310.2 16M959 0L955.9 16M1070.2 16L1072 14.9M1072 14.9L1088 9.1M1088 9.1L1104 3.9M1104 3.9L1110.1 0M189.8 32L192 29.8M192 29.8L208 16.2M208 16.2L208.3 16M310.2 16L306.4 32M955.9 16L958 32M1042.1 32L1056 21.2M1056 21.2L1070.2 16M171.3 48L176 43.9M176 43.9L189.8 32M298.5 48L304 37.1M304 37.1L306.4 32M958 32L960 38.9M960 38.9L963.2 48M1027.9 48L1040 33.9M1040 33.9L1042.1 32M146.3 64L160 55M160 55L171.3 48M298.5 48L297.1 64M877.1 64L880 61.9M880 61.9L896 54.5M896 54.5L912 56.7M912 56.7L922.4 64M963.2 48L960.5 64M1027.9 48L1024.1 64M124.8 80L128 76.9M128 76.9L144 65.3M144 65.3L146.3 64M297.1 64L297.5 80M726.2 80L736 64.8M736 64.8L752 65.4M752 65.4L768 79.7M768 79.7L768.4 80M877.1 64L877.6 80M922.4 64L928 69.3M928 69.3L944 71.5M944 71.5L960 64.3M960 64.3L960.5 64M1024.1 64L1025.8 80M109.6 96L112 93.8M112 93.8L124.8 80M297.5 80L297.3 96M719.7 96L720 94.7M720 94.7L726.2 80M768.4 80L784 94.8M784 94.8L793.2 96M877.6 80L880 81.7M880 81.7L896 88M896 88L907 96M1025.8 80L1028.8 96M109.6 96L98.5 112M297.3 96L300 112M719.7 96L717.6 112M793.2 96L800 97.6M800 97.6L816 97.9M816 97.9L832 103M832 103L838.7 112M907 96L912 108.6M912 108.6L912.5 112M1028.8 96L1031.9 112M95.7 128L96 127.1M96 127.1L98.5 112M300 112L304 116.8M304 116.8L313.3 128M717.6 112L716.9 128M838.7 112L848 126.4M848 126.4L848.5 128M912.5 112L912.7 128M1031.9 112L1035.2 128M95.7 128L96 128.3M96 128.3L104.2 144M313.3 128L320 133.2M320 133.2L330.2 144M716.9 128L717.6 144M848.5 128L859.1 144M912.7 128L914.8 144M1035.2 128L1040 143M1040 143L1040.3 144M104.2 144L112 152.2M112 152.2L121.6 160M330.2 144L336 150.8M336 150.8L341.9 160M717.6 144L720 158M720 158L720.6 160M859.1 144L863.6 160M914.8 144L926.6 160M1040.3 144L1046.6 160M121.6 160L128 165.1M128 165.1L144 167.8M144 167.8L160 165.4M160 165.4L176 163.2M176 163.2L192 163.7M192 163.7L208 167.7M208 167.7L224 175.3M224 175.3L225 176M341.9 160L349.9 176M720.6 160L723.7 176M863.6 160L857.6 176M926.6 160L928 161.2M928 161.2L944 174.1M944 174.1L945.9 176M1046.6 160L1054.7 176M225 176L240 186.8M240 186.8L245.2 192M349.9 176L352 180.6M352 180.6L356.2 192M723.7 176L720.4 192M857.6 176L848.2 192M945.9 176L960 188.9M960 188.9L962.8 192M1054.7 176L1056 177M1056 177L1072 183M1072 183L1088 187.5M1088 187.5L1097 192M245.2 192L256 203.3M256 203.3L260.2 208M356.2 192L358.7 208M713.1 208L720 192.8M720 192.8L720.4 192M772.4 208L784 199.1M784 199.1L800 198.1M800 198.1L816 203.4M816 203.4L832 206.9M832 206.9L848 192.4M848 192.4L848.2 192M962.8 192L976 202.5M976 202.5L988.6 208M1097 192L1104 202.4M1104 202.4L1107 208M260.2 208L272 219.4M272 219.4L279.9 224M358.7 208L355.9 224M713.1 208L705.4 224M772.4 208L770.6 224M988.6 208L992 209.7M992 209.7L1008 210.5M1008 210.5L1022.2 224M1100.5 224L1104 214M1104 214L1107 208M279.9 224L288 230.6M288 230.6L304 238M304 238L312.7 240M329.9 240L336 239.3M336 239.3L352 229.9M352 229.9L355.9 224M705.4 224L705.9 240M770.6 224L784 236.1M784 236.1L800 239.3M800 239.3L816 236.8M816 236.8L828.8 240M1022.2 224L1024 230.7M1024 230.7L1026.5 240M1100.5 224L1092.5 240M312.7 240L320 241.3M320 241.3L329.9 240M705.9 240L710.8 256M828.8 240L832 241.1M832 241.1L837.7 256M1026.5 240L1025.8 256M1075.9 256L1088 247.1M1088 247.1L1092.5 240M710.8 256L710.2 272M837.7 256L844.2 272M967 272L976 268.3M976 268.3L992 263.9M992 263.9L1008 266.8M1008 266.8L1024 271.8M1024 271.8L1025.8 256M1024 272L1040 265.5M1040 265.5L1056 262.4M1056 262.4L1072 257.5M1072 257.5L1075.9 256M701.2 288L704 282.5M704 282.5L710.2 272M844.2 272L848 279.5M848 279.5L850.6 288M967 272L976 280.3M976 280.3L992 286.8M992 286.8L1008 279.8M1008 279.8L1024 272M1024 272L1024 272M701.2 288L689.8 304M850.6 288L855.8 304M679.1 320L688 306.9M688 306.9L689.8 304M855.8 304L859.8 320M679.1 320L674.4 336M859.8 320L859.7 336M668.1 352L672 342.7M672 342.7L674.4 336M859.7 336L850.1 352M652.1 368L656 365M656 365L668.1 352M833.9 368L848 354.1M848 354.1L850.1 352M631.8 384L640 376.6M640 376.6L652.1 368M821.2 384L832 370M832 370L833.9 368M631.8 384L629.6 400M815.3 400L816 398.2M816 398.2L821.2 384M629.6 400L637.5 416M815.3 400L814.8 416M637.5 416L640 422.7M640 422.7L643.8 432M814.8 416L816 431.1M816 431.1L816.1 432M639.6 448L640 446.4M640 446.4L643.8 432M815.6 448L816 434.4M816 434.4L816.1 432M639.6 448L631.3 464M815.6 448L816 451.8M816 451.8L817.7 464M617.8 480L624 475.1M624 475.1L631.3 464M817.7 464L827.1 480M574.2 496L576 494.5M576 494.5L592 491.1M592 491.1L608 490.5M608 490.5L617.8 480M827.1 480L832 485.3M832 485.3L836.3 496M574.2 496L569 512M836.3 496L834.4 512M569 512L576 523.2M576 523.2L579.4 528M825.9 528L832 517.9M832 517.9L834.4 512M579.4 528L577.3 544M825.9 528L821.6 544M0 553.9L16 550.7M16 550.7L32 555.1M32 555.1L38.5 560M512.3 560L528 554.3M528 554.3L544 551.4M544 551.4L560 549.3M560 549.3L576 544.8M576 544.8L577.3 544M821.6 544L823.7 560M38.5 560L48 570.6M48 570.6L52 576M473 576L480 571.4M480 571.4L496 564.9M496 564.9L512 560.1M512 560.1L512.3 560M823.7 560L827.9 576M52 576L59.3 592M448.5 592L464 581.1M464 581.1L473 576M827.9 576L832 587.9M832 587.9L833.3 592M59.3 592L61.9 608M425.2 608L432 603.3M432 603.3L448 592.4M448 592.4L448.5 592M833.3 592L839.7 608M0 623.2L1.1 624M43.3 624L48 622.1M48 622.1L61.9 608M405.6 624L416 614.4M416 614.4L425.2 608M839.7 608L848 616.9M848 616.9L852.8 624M1.1 624L16 627.9M16 627.9L32 626.4M32 626.4L43.3 624M394.8 640L400 630.9M400 630.9L405.6 624M852.8 624L863.2 640M394.8 640L390.6 656M863.2 640L864 642.1M864 642.1L868.8 656M390.6 656L394.3 672M868.8 656L871 672M394.3 672L400 679.6M400 679.6L408.4 688M871 672L874.6 688M203.9 48L208 44.6M208 44.6L224 35.5M224 35.5L240 32M240 32L256 35.4M256 35.4L267 48M177.3 64L192 55.5M192 55.5L203.9 48M267 48L272 57.3M272 57.3L274.1 64M147.2 80L160 72.9M160 72.9L176 64.7M176 64.7L177.3 64M274.1 64L275.2 80M127.2 96L128 95.2M128 95.2L144 82M144 82L147.2 80M271.2 96L272 93.5M272 93.5L275.2 80M734.8 96L736 93.7M736 93.7L752 93.1M752 93.1L754.9 96M928.1 96L944 87.3M944 87.3L960 84M960 84L976 82.5M976 82.5L992 83.6M992 83.6L1008 95.7M1008 95.7L1008.1 96M127.2 96L118.2 112M271.2 96L267.3 112M734.8 96L729.9 112M754.9 96L764.3 112M923.5 112L928 96.2M928 96.2L928.1 96M1008.1 96L1013.8 112M118.2 112L117.5 128M267.3 112L272 116.7M272 116.7L288 127.3M288 127.3L288.6 128M729.9 112L729.5 128M764.3 112L767.6 128M923.5 112L924.5 128M1013.8 112L1017.7 128M117.5 128L128 142.6M128 142.6L130.1 144M288.6 128L304 137.8M304 137.8L311.8 144M729.5 128L733.7 144M767.6 128L768 129.5M768 129.5L775.4 144M924.5 128L928 136.3M928 136.3L934.1 144M1017.7 128L1024 144M130.1 144L144 149.6M144 149.6L160 150.7M160 150.7L176 150.8M176 150.8L192 152.2M192 152.2L208 155.2M208 155.2L224 159.9M224 159.9L224.3 160M311.8 144L320 150.3M320 150.3L328.5 160M733.7 144L736 149.2M736 149.2L748.7 160M775.4 144L784 157.4M784 157.4L791.5 160M934.1 144L944 151.3M944 151.3L960 158.9M960 158.9L961.4 160M1024 144L1024 144M1024 144L1028 160M224.3 160L240 167.5M240 167.5L248.7 176M328.5 160L336 172.2M336 172.2L338 176M748.7 160L752 164.6M752 164.6L768 169.3M768 169.3L784 162.2M784 162.2L791.5 160M961.4 160L971.4 176M1028 160L1028.8 176M248.7 176L256 183.2M256 183.2L261.5 192M338 176L344.2 192M971.4 176L976 181.1M976 181.1L991.6 192M1009.3 192L1024 188.3M1024 188.3L1028.8 176M261.5 192L272 203.7M272 203.7L277.8 208M344.2 192L347.1 208M991.6 192L992 192.2M992 192.2L1008 192.1M1008 192.1L1009.3 192M1037.2 208L1040 201.5M1040 201.5L1056 199.9M1056 199.9L1072 205.9M1072 205.9L1074.9 208M277.8 208L288 214.4M288 214.4L304 218.6M304 218.6L320 223.2M320 223.2L327.8 224M347.1 208L337.2 224M735.9 224L736 223.9M736 223.9L736.2 224M1037.2 208L1040 218.9M1040 218.9L1041.8 224M1074.9 208L1074.2 224M327.8 224L336 224.7M336 224.7L337.2 224M735.9 224L732.6 240M736.2 224L752 237.7M752 237.7L753.4 240M1041.8 224L1056 235.6M1056 235.6L1072 226.8M1072 226.8L1074.2 224M732.6 240L733.3 256M753.4 240L768 247.9M768 247.9L784 252.6M784 252.6L796.7 256M733.3 256L728.7 272M796.7 256L800 257M800 257L816 265.7M816 265.7L821.7 272M715.9 288L720 281.3M720 281.3L728.7 272M821.7 272L832 287.6M832 287.6L832.2 288M703.4 304L704 303.2M704 303.2L715.9 288M832.2 288L839.6 304M703.4 304L693.5 320M839.6 304L844 320M693.5 320L689.2 336M844 320L844.1 336M684.9 352L688 341.1M688 341.1L689.2 336M844.1 336L833.9 352M684.9 352L676.2 368M819.3 368L832 353.9M832 353.9L833.9 352M658.8 384L672 373.6M672 373.6L676.2 368M807.2 384L816 372.4M816 372.4L819.3 368M652 400L656 389.7M656 389.7L658.8 384M807.2 384L800.7 400M652 400L656 409.4M656 409.4L658.9 416M799.5 416L800 410.6M800 410.6L800.7 400M658.9 416L664.1 432M799.5 416L800 424.5M800 424.5L800.3 432M664.1 432L659.4 448M798.2 448L800 435.5M800 435.5L800.3 432M653.3 464L656 456.2M656 456.2L659.4 448M798.2 448L790.6 464M653.3 464L646.7 480M779.1 480L784 475.6M784 475.6L790.6 464M646.7 480L641.6 496M779.1 480L784 490.5M784 490.5L786 496M636.5 512L640 499.6M640 499.6L641.6 496M786 496L795.5 512M636.5 512L626.9 528M795.5 512L797 528M614.3 544L624 531.7M624 531.7L626.9 528M797 528L797.9 544M597.1 560L608 550.7M608 550.7L614.3 544M797.9 544L800 550.6M800 550.6L802.6 560M523.1 576L528 574.4M528 574.4L544 570.7M544 570.7L560 568.4M560 568.4L576 566.3M576 566.3L592 562.7M592 562.7L597.1 560M802.6 560L810.4 576M13.7 592L16 582.2M16 582.2L32 587.7M32 587.7L34 592M473.4 592L480 588.5M480 588.5L496 583.7M496 583.7L512 580.3M512 580.3L523.1 576M810.4 576L816 588.6M816 588.6L817.2 592M13.7 592L16 607M16 607L17.8 608M34 592L33.5 608M447.3 608L448 607.5M448 607.5L464 596.9M464 596.9L473.4 592M817.2 592L822.1 608M17.8 608L32 608.8M32 608.8L33.5 608M422.7 624L432 617.6M432 617.6L447.3 608M822.1 608L832 619.2M832 619.2L836.4 624M407.2 640L416 629.4M416 629.4L422.7 624M836.4 624L848 633.5M848 633.5L852.4 640M407.2 640L400.9 656M852.4 640L858.8 656M400.9 656L406.2 672M517.2 672L528 668.4M528 668.4L532.5 672M858.8 656L857.8 672M406.2 672L416 681.8M416 681.8L426.2 688M492.1 688L496 685.7M496 685.7L512 673.3M512 673.3L517.2 672M532.5 672L544 677.6M544 677.6L560 686.4M560 686.4L566.2 688M839 688L848 683.8M848 683.8L857.8 672M193.5 96L208 91.1M208 91.1L214.6 96M177.6 112L192 96.7M192 96.7L193.5 96M214.6 96L217.1 112M177.6 112L192 125.3M192 125.3L208 127.4M208 127.4L217.1 112M287.5 176L288 175.1M288 175.1L304 174.2M304 174.2L305.7 176M287.5 176L288 176.8M288 176.8L304 179.7M304 179.7L305.7 176M767 288L768 287.4M768 287.4L783.3 288M739.5 304L752 295.9M752 295.9L767 288M783.3 288L784 288M784 288L798.3 304M722.9 320L736 306.4M736 306.4L739.5 304M798.3 304L800 307.3M800 307.3L805 320M717.6 336L720 327.4M720 327.4L722.9 320M805 320L807.1 336M717.6 336L720 343.3M720 343.3L725 352M799.4 352L800 350.8M800 350.8L807.1 336M725 352L736 359.3M736 359.3L752 366.5M752 366.5L757.9 368M781.6 368L784 367.3M784 367.3L799.4 352M757.9 368L768 371M768 371L781.6 368M717.2 528L720 526.6M720 526.6L736 524M736 524L746 528M701 544L704 540.2M704 540.2L717.2 528M746 528L752 532.2M752 532.2L758.5 544M701 544L697.9 560M758.5 544L759.4 560M669.8 576L672 573.8M672 573.8L688 568.5M688 568.5L697.9 560M713.7 576L720 574.5M720 574.5L733.3 576M740.9 576L752 575M752 575L759.4 560M669.8 576L660.9 592M703.4 592L704 588.3M704 588.3L713.7 576M733.3 576L736 576.2M736 576.2L740.9 576M660.9 592L659.7 608M703.4 592L701.7 608M659.7 608L663.8 624M701.7 608L696.2 624M456.2 640L464 636.4M464 636.4L479.8 640M663.8 624L672 630.7M672 630.7L688 631.1M688 631.1L696.2 624M436.7 656L448 646.3M448 646.3L456.2 640M479.8 640L480 640.7M480 640.7L480.9 656M619.8 656L624 654.8M624 654.8L626.8 656M436.7 656L448 664.1M448 664.1L464 667.5M464 667.5L480 657.2M480 657.2L480.9 656M619.8 656L624 656.8M624 656.8L626.8 656M731 672L736 665.3M736 665.3L747.3 672M714.5 688L720 679.8M720 679.8L731 672M747.3 672L752 674.5M752 674.5L755.7 688M750.8 320L752 319.3M752 319.3L768 317.2M768 317.2L772.1 320M750.8 320L739.1 336M772.1 320L780.2 336M739.1 336L752 346M752 346L768 348.1M768 348.1L780.2 336"/>
  <path stroke="rgba(255,255,255,.13)" d="M523.9 0L518 16M529.1 0L528.6 16M518 16L528 16.7M528 16.7L528.6 16M447.2 64L448 63.5M448 63.5L464 55.9M464 55.9L480 55M480 55L488.8 64M447.2 64L448 69M448 69L453 80M488.8 64L480.5 80M453 80L464 83.2M464 83.2L480 80.4M480 80.4L480.5 80M449.7 208L464 200.4M464 200.4L480 200M480 200L496 207.9M496 207.9L496.2 208M437.7 224L448 209.8M448 209.8L449.7 208M496.2 208L507.9 224M437.7 224L439.9 240M507.9 224L496.6 240M439.9 240L445.6 256M485.6 256L496 240.6M496 240.6L496.6 240M445.6 256L448 263.5M448 263.5L451.4 272M485.6 256L480.8 272M451.4 272L461.4 288M470.4 288L480 276.3M480 276.3L480.8 272M461.4 288L464 289.6M464 289.6L470.4 288M509.3 320L512 317.8M512 317.8L528 314.9M528 314.9L540.3 320M341.1 336L352 333.4M352 333.4L354.6 336M509.3 320L506.3 336M540.3 320L544 330M544 330L544.9 336M300 352L304 351.3M304 351.3L320 345.4M320 345.4L336 336.9M336 336.9L341.1 336M354.6 336L368 348.2M368 348.2L370.3 352M506.3 336L503.1 352M543.9 352L544 351.1M544 351.1L544.9 336M265.2 368L272 362.2M272 362.2L288 354.1M288 354.1L300 352M370.3 352L381.2 368M503.1 352L496.4 368M543.9 352L541.1 368M0 377.6L16 371.1M16 371.1L32 371.7M32 371.7L47.5 384M265.2 368L259.8 384M381.2 368L384 374.4M384 374.4L388.9 384M495.9 384L496 381.8M496 381.8L496.4 368M541.1 368L533.5 384M1200 384L1200 383.8M47.5 384L48 384.5M48 384.5L58.9 400M123.1 400L128 394M128 394L139.8 400M259.8 384L258.9 400M388.9 384L390.2 400M495.9 384L496 384.1M496 384.1L512 395.3M512 395.3L528 389.8M528 389.8L533.5 384M1200 384L1199.2 400M58.9 400L64 411.2M64 411.2L68.4 416M123.1 400L128 405.3M128 405.3L139.8 400M247.7 416L256 405.4M256 405.4L258.9 400M390.2 400L388.7 416M1199.2 400L1197 416M68.4 416L71.3 432M237.4 432L240 426.7M240 426.7L247.7 416M388.7 416L384.1 432M1197 416L1195.7 432M0 440.4L10 448M53.8 448L64 437.5M64 437.5L71.3 432M237.4 432L239.4 448M378.6 448L384 432.3M384 432.3L384.1 432M1195.7 432L1195.2 448M10 448L16 450.4M16 450.4L32 453.8M32 453.8L48 450.6M48 450.6L53.8 448M239.4 448L240 449.3M240 449.3L249.8 464M378.6 448L372.8 464M1195.2 448L1194.2 464M249.8 464L256 471.9M256 471.9L264.6 480M359.4 480L368 471.5M368 471.5L372.8 464M1194.2 464L1193.3 480M264.6 480L272 488.2M272 488.2L281.6 496M323.6 496L336 491.4M336 491.4L352 484.6M352 484.6L359.4 480M1193.3 480L1195.2 496M281.6 496L288 498.3M288 498.3L304 499.5M304 499.5L320 496.8M320 496.8L323.6 496M1195.2 496L1200 504M276.9 640L288 634.1M288 634.1L299.7 640M268.1 656L272 646.3M272 646.3L276.9 640M299.7 640L304 643.9M304 643.9L307.1 656M268.1 656L270.3 672M307.1 656L305.7 672M270.3 672L272 674.4M272 674.4L288 684.2M288 684.2L304 676.2M304 676.2L305.7 672M213.7 64L224 59.8M224 59.8L240 60.3M240 60.3L245 64M181 80L192 74.7M192 74.7L208 66.2M208 66.2L213.7 64M245 64L249.5 80M153.5 96L160 92M160 92L176 82.9M176 82.9L181 80M249.5 80L242.8 96M139.6 112L144 105.9M144 105.9L153.5 96M237.6 112L240 103.4M240 103.4L242.8 96M936.6 112L944 102.4M944 102.4L960 99.6M960 99.6L976 107.1M976 107.1L981 112M139.6 112L142.2 128M237.6 112L236 128M936.6 112L938.8 128M981 112L983 128M142.2 128L144 129.3M144 129.3L160 134.9M160 134.9L176 137.6M176 137.6L192 140.6M192 140.6L208 143M208 143L224 140.9M224 140.9L236 128M938.8 128L944 134.1M944 134.1L960 138.8M960 138.8L976 138.5M976 138.5L983 128M266.9 160L272 153.5M272 153.5L288 148M288 148L304 153.7M304 153.7L312.1 160M266.9 160L267.5 176M312.1 160L320 168.3M320 168.3L324.9 176M267.5 176L272 183.7M272 183.7L277.6 192M324.9 176L328 192M277.6 192L288 200M288 200L304 204.1M304 204.1L320 203.6M320 203.6L328 192M756.3 272L768 266.5M768 266.5L784 267.4M784 267.4L795.3 272M735.8 288L736 287.8M736 287.8L752 274.4M752 274.4L756.3 272M795.3 272L800 275.3M800 275.3L811.3 288M718.1 304L720 301.6M720 301.6L735.8 288M811.3 288L816 295.8M816 295.8L820.4 304M718.1 304L707.4 320M820.4 304L825.7 320M702.8 336L704 331.7M704 331.7L707.4 320M825.7 320L826.7 336M702.8 336L703 352M826.7 336L817.6 352M703 352L704 358.2M704 358.2L710 368M804.1 368L816 353.8M816 353.8L817.6 352M710 368L720 372.4M720 372.4L736 378M736 378L749.4 384M789.3 384L800 373.5M800 373.5L804.1 368M749.4 384L752 386.4M752 386.4L768 396.2M768 396.2L784 392.5M784 392.5L789.3 384M713.5 432L720 428.6M720 428.6L724.2 432M713.5 432L710.4 448M724.2 432L724 448M710.4 448L720 453.9M720 453.9L724 448M700.1 512L704 508.9M704 508.9L720 503.7M720 503.7L736 504.6M736 504.6L752 509M752 509L757.5 512M675.8 528L688 519.6M688 519.6L700.1 512M757.5 512L768 521.2M768 521.2L771.6 528M660.1 544L672 531.7M672 531.7L675.8 528M771.6 528L775.7 544M650.1 560L656 549.8M656 549.8L660.1 544M775.7 544L779.1 560M650.1 560L645.1 576M779.1 560L784 569.1M784 569.1L788.6 576M545.9 592L560 587.7M560 587.7L576 586.2M576 586.2L587 592M645.1 576L644.6 592M788.6 576L798.7 592M491.2 608L496 607.7M496 607.7L497.7 608M526.9 608L528 607.7M528 607.7L544 593.6M544 593.6L545.9 592M587 592L592 601.1M592 601.1L594.4 608M644.6 592L643.8 608M798.7 592L800 597.5M800 597.5L802.1 608M446.7 624L448 623.2M448 623.2L464 614.5M464 614.5L480 608.5M480 608.5L491.2 608M497.7 608L512 618.7M512 618.7L526.9 608M594.4 608L608 621.4M608 621.4L616.6 624M628.6 624L640 616.6M640 616.6L643.8 608M802.1 608L805.4 624M423.4 640L432 633.1M432 633.1L446.7 624M509.1 640L512 628.5M512 628.5L528 626.1M528 626.1L534.6 640M616.6 624L624 625.6M624 625.6L628.6 624M805.4 624L816 632.9M816 632.9L832 638.1M832 638.1L834.4 640M413.7 656L416 650.5M416 650.5L423.4 640M509.1 640L502.6 656M534.6 640L544 653.2M544 653.2L545.4 656M834.4 640L848 655M848 655L848.4 656M413.7 656L416 662.8M416 662.8L421.5 672M491 672L496 665.1M496 665.1L502.6 656M545.4 656L560 669.8M560 669.8L566.2 672M839.3 672L848 657.9M848 657.9L848.4 656M421.5 672L432 678.4M432 678.4L448 683M448 683L464 683.9M464 683.9L480 679.4M480 679.4L491 672M566.2 672L576 674.3M576 674.3L592 677.6M592 677.6L608 682.8M608 682.8L621.6 688M671.2 688L672 687.8M672 687.8L672.1 688M781.1 688L784 680.5M784 680.5L800 673.2M800 673.2L816 676.4M816 676.4L832 675.7M832 675.7L839.3 672"/>
  <path stroke="rgba(246,168,0,.38)" d="M130.2 16L144 1.9M144 1.9L146.1 0M396 0L387.9 16M730 16L736 10.2M736 10.2L744.8 0M815.1 0L816 1.9M816 1.9L822.9 16M909.5 0L902.3 16M1172.2 0L1168.3 16M119.7 32L128 18.6M128 18.6L130.2 16M378.3 32L384 20.1M384 20.1L387.9 16M703.5 32L704 31.6M704 31.6L720 21.2M720 21.2L730 16M822.9 16L832 24M832 24L848 27.8M848 27.8L864 26.4M864 26.4L880 23.4M880 23.4L896 19.6M896 19.6L902.3 16M1153.3 32L1168 16.5M1168 16.5L1168.3 16M14.7 48L16 47.7M16 47.7L24.6 48M107.7 48L112 42.8M112 42.8L119.7 32M378.3 32L374.6 48M685.2 48L688 45M688 45L703.5 32M1113.4 48L1120 46M1120 46L1136 40.9M1136 40.9L1152 33M1152 33L1153.3 32M0 57.6L14.7 48M24.6 48L32 48.3M32 48.3L48 55.2M48 55.2L64 63.1M64 63.1L68.2 64M85.6 64L96 59.4M96 59.4L107.7 48M374.6 48L372.8 64M685.2 48L678.6 64M1084.3 64L1088 60.8M1088 60.8L1104 51.5M1104 51.5L1113.4 48M68.2 64L80 66.2M80 66.2L85.6 64M372.8 64L370.1 80M678.6 64L683.4 80M1084.3 64L1075.7 80M366 96L368 90M368 90L370.1 80M683.4 80L688 88.8M688 88.8L690.4 96M1075.7 80L1073.4 96M366 96L363.9 112M690.4 96L692.8 112M1073.4 96L1076.8 112M363.9 112L368 127.5M368 127.5L368.1 128M692.8 112L690.7 128M1076.8 112L1086.6 128M368.1 128L372.1 144M682.4 144L688 135.1M688 135.1L690.7 128M1086.6 128L1088 129.2M1088 129.2L1104 139.4M1104 139.4L1112 144M372.1 144L376.7 160M671.2 160L672 159.4M672 159.4L682.4 144M1112 144L1120 147.8M1120 147.8L1136 152.8M1136 152.8L1152 156.4M1152 156.4L1163.3 160M376.7 160L380.2 176M671.2 160L664 176M1163.3 160L1168 162.2M1168 162.2L1177.8 176M0 189.3L3.3 192M380.2 176L382 192M664 176L661 192M1177.8 176L1184 189.5M1184 189.5L1185 192M3.3 192L16 197M16 197L32 202.8M32 202.8L41 208M382 192L381.9 208M661 192L659.6 208M1185 192L1188.7 208M41 208L48 215.5M48 215.5L53 224M381.9 208L379.7 224M659.6 208L658.4 224M1188.7 208L1187.8 224M53 224L57.3 240M202.2 240L208 237.4M208 237.4L224 232.5M224 232.5L240 238.2M240 238.2L241.7 240M379.7 224L374.8 240M658.4 224L656.8 240M1182.8 240L1184 236.5M1184 236.5L1187.8 224M57.3 240L59.7 256M171.5 256L176 252.3M176 252.3L192 248.5M192 248.5L202.2 240M241.7 240L256 252.5M256 252.5L259.2 256M361.7 256L368 250.6M368 250.6L374.8 240M653.3 256L656 246.8M656 246.8L656.8 240M1182.8 240L1175.7 256M59.7 256L61.8 272M171.5 256L163.1 272M259.2 256L272 270.6M272 270.6L273.2 272M333.8 272L336 270.6M336 270.6L352 262M352 262L361.7 256M623.4 272L624 271.5M624 271.5L640 264.3M640 264.3L653.3 256M1167.6 272L1168 271.5M1168 271.5L1175.7 256M61.8 272L64 282.5M64 282.5L65.8 288M146.2 288L160 274.2M160 274.2L163.1 272M273.2 272L288 283.6M288 283.6L304 286.3M304 286.3L320 280.4M320 280.4L333.8 272M623.4 272L619.3 288M1148.9 288L1152 285.6M1152 285.6L1167.6 272M65.8 288L76.6 304M113.6 304L128 297.7M128 297.7L144 289.1M144 289.1L146.2 288M619.3 288L624 299.1M624 299.1L626.5 304M1105.2 304L1120 300.3M1120 300.3L1136 294.9M1136 294.9L1148.9 288M76.6 304L80 307.6M80 307.6L96 309.2M96 309.2L112 304.7M112 304.7L113.6 304M626.5 304L633.6 320M1082.6 320L1088 313.7M1088 313.7L1104 304.3M1104 304.3L1105.2 304M633.6 320L633.8 336M1082.6 320L1076.5 336M622.1 352L624 349.4M624 349.4L633.8 336M1065.4 352L1072 345.5M1072 345.5L1076.5 336M607.3 368L608 366.9M608 366.9L622.1 352M892.6 368L896 365.6M896 365.6L912 360.1M912 360.1L928 358.9M928 358.9L944 359.6M944 359.6L960 360.9M960 360.9L976 364M976 364L992 366.6M992 366.6L1008 365.7M1008 365.7L1024 363.1M1024 363.1L1040 360.4M1040 360.4L1056 356.6M1056 356.6L1065.4 352M607.3 368L600 384M872 384L880 377M880 377L892.6 368M1100.7 384L1104 381.5M1104 381.5L1110.1 384M600 384L596 400M861 400L864 394.6M864 394.6L872 384M1100.7 384L1097.5 400M1110.1 384L1116 400M586.8 416L592 409.6M592 409.6L596 400M861 400L858 416M1097.5 400L1104 408.9M1104 408.9L1116 400M564.5 432L576 423.3M576 423.3L586.8 416M858 416L857.4 432M554.3 448L560 437.6M560 437.6L564.5 432M857.4 432L857.8 448M540.6 464L544 461.3M544 461.3L554.3 448M857.8 448L863.8 464M1069.4 464L1072 461.8M1072 461.8L1088 457.6M1088 457.6L1104 459.9M1104 459.9L1112.2 464M469.3 480L480 477.1M480 477.1L496 475M496 475L512 474M512 474L528 470.7M528 470.7L540.6 464M863.8 464L864 464.4M864 464.4L873.2 480M1047.9 480L1056 471.8M1056 471.8L1069.4 464M1112.2 464L1120 468.1M1120 468.1L1125.9 480M452.6 496L464 482.4M464 482.4L469.3 480M873.2 480L879.2 496M1034.1 496L1040 488.4M1040 488.4L1047.9 480M1125.9 480L1127.7 496M0 506.3L16 511.1M16 511.1L19.5 512M452.6 496L449 512M879.2 496L877.4 512M1034.1 496L1025.5 512M1127.7 496L1125.9 512M19.5 512L32 515.1M32 515.1L48 519.3M48 519.3L64 526.1M64 526.1L67.6 528M447.9 528L448 526.1M448 526.1L449 512M877.4 512L871.7 528M982.6 528L992 525.8M992 525.8L1008 526.2M1008 526.2L1024 515.2M1024 515.2L1025.5 512M1116.5 528L1120 525.5M1120 525.5L1125.9 512M67.6 528L80 536.6M80 536.6L95.5 544M98.2 544L112 542.5M112 542.5L128 536.7M128 536.7L144 533.3M144 533.3L156.6 544M447.9 528L442.7 544M871.7 528L867.4 544M945.1 544L960 535.6M960 535.6L976 529.6M976 529.6L982.6 528M1090.4 544L1104 538.1M1104 538.1L1116.5 528M95.5 544L96 544.3M96 544.3L98.2 544M156.6 544L160 551.8M160 551.8L162.5 560M429.4 560L432 557.5M432 557.5L442.7 544M867.4 544L867.7 560M942.7 560L944 549.7M944 549.7L945.1 544M1090.4 544L1089.1 560M142 576L144 575.6M144 575.6L160 564.5M160 564.5L162.5 560M398.7 576L400 575.7M400 575.7L416 568.7M416 568.7L429.4 560M867.7 560L868.9 576M942.7 560L944 562.5M944 562.5L953.7 576M1083.1 576L1088 561.3M1088 561.3L1089.1 560M117.2 592L128 578.8M128 578.8L142 576M377.1 592L384 582.2M384 582.2L398.7 576M868.9 576L873 592M953.7 576L960 585.7M960 585.7L966 592M1083.1 576L1078.5 592M117.2 592L115.9 608M377.1 592L372.1 608M873 592L880 607.6M880 607.6L880.4 608M966 592L961.5 608M1078.5 592L1073.5 608M115.9 608L117.3 624M366.6 624L368 619.5M368 619.5L372.1 608M880.4 608L895.2 624M914.3 624L928 618.6M928 618.6L944 613M944 613L960 608.4M960 608.4L961.5 608M1067 624L1072 613M1072 613L1073.5 608M117.3 624L118.9 640M366.6 624L362.3 640M895.2 624L896 625.2M896 625.2L912 625.1M912 625.1L914.3 624M1067 624L1059.1 640M118.9 640L120.1 656M362.3 640L360.8 656M1053.3 656L1056 649.3M1056 649.3L1059.1 640M120.1 656L125.1 672M360.8 656L362.6 672M1053.3 656L1047 672M125.1 672L128 674.6M128 674.6L144 687.5M144 687.5L144.6 688M362.6 672L367.1 688M1033.4 688L1040 682.2M1040 682.2L1047 672"/>
  <path stroke="rgba(255,71,55,.28)" d=""/>
</svg>
