<?xml version="1.0" encoding="UTF-8"?>
<!DOCTYPE svg PUBLIC "-//W3C//DTD SVG 1.1//EN" "http://www.w3.org/Graphics/SVG/1.1/DTD/svg11.dtd">
<!-- Creator: CorelDRAW -->
<svg xmlns="http://www.w3.org/2000/svg" xml:space="preserve" width="3.1771in" height="3.26574in" version="1.1" style="shape-rendering:geometricPrecision; text-rendering:geometricPrecision; image-rendering:optimizeQuality; fill-rule:evenodd; clip-rule:evenodd"
viewBox="0 0 941 967.26"
 xmlns:xlink="http://www.w3.org/1999/xlink"
 xmlns:xodm="http://www.corel.com/coreldraw/odm/2003">
 <defs>
  <style type="text/css">
   <![CDATA[
    .fil0 {fill:#D80003}
   ]]>
  </style>
 </defs>
 <g id="Capa_x0020_1">
  <metadata id="CorelCorpID_0Corel-Layer"/>
  <path class="fil0" d="M608.77 16.59c58.58,15.69 111.73,41.53 158.12,75.07l174.11 548.73c-81.54,238.64 -335.31,376.5 -582.51,310.26 -257.94,-69.11 -411.01,-334.24 -341.89,-592.17 69.11,-257.94 334.24,-411.01 592.17,-341.89l0 -0zm-219.07 687.51l-105.39 0c0,109.29 88.6,197.88 197.88,197.88 109.29,0 197.89,-88.6 197.89,-197.88l0 -150.57 0 -70.52 0 -221.09c0,-109.28 -88.6,-197.88 -197.89,-197.88 -109.29,0 -197.88,88.6 -197.88,197.88l105.39 0c0,-51.08 41.41,-92.49 92.49,-92.49 51.08,0 92.5,41.41 92.5,92.49l0 46.13c-27.6,-14.63 -59.08,-22.92 -92.5,-22.92 -109.29,0 -197.88,88.6 -197.88,197.88 0,109.29 88.6,197.88 197.88,197.88 33.42,0 64.89,-8.29 92.5,-22.92l0 46.12c0,51.08 -41.41,92.49 -92.5,92.49 -51.08,0 -92.49,-41.41 -92.49,-92.49l0 0zm92.49 -313.58c51.08,0 92.5,41.41 92.5,92.5 0,51.08 -41.41,92.49 -92.5,92.49 -51.08,0 -92.49,-41.41 -92.49,-92.49 0,-51.09 41.41,-92.5 92.49,-92.5zm431.17 203.27c-91.96,-69.06 -154.08,-200.58 -154.08,-351.49 0,-35.54 3.46,-70 9.93,-102.83l144.15 454.32 -0 0z"/>
 </g>
</svg>
