<?xml version="1.0" encoding="UTF-8"?>
<!DOCTYPE svg PUBLIC "-//W3C//DTD SVG 1.1//EN" "http://www.w3.org/Graphics/SVG/1.1/DTD/svg11.dtd">
<!-- Creator: CorelDRAW -->
<svg xmlns="http://www.w3.org/2000/svg" xml:space="preserve" width="11.467in" height="3.26574in" version="1.1" style="shape-rendering:geometricPrecision; text-rendering:geometricPrecision; image-rendering:optimizeQuality; fill-rule:evenodd; clip-rule:evenodd"
viewBox="0 0 12258.21 3491.08"
 xmlns:xlink="http://www.w3.org/1999/xlink"
 xmlns:xodm="http://www.corel.com/coreldraw/odm/2003">
 <defs>
  <style type="text/css">
   <![CDATA[
    .fil0 {fill:#D80003}
    .fil2 {fill:#D80003;fill-rule:nonzero}
    .fil1 {fill:#FEFEFE;fill-rule:nonzero}
   ]]>
  </style>
 </defs>
 <g id="Capa_x0020_1">
  <metadata id="CorelCorpID_0Corel-Layer"/>
  <path class="fil0" d="M2197.21 59.89c211.44,56.64 403.27,149.9 570.69,270.95l628.41 1980.52c-294.29,861.32 -1210.23,1358.89 -2102.44,1119.82 -930.96,-249.45 -1483.43,-1206.35 -1233.98,-2137.3 249.45,-930.97 1206.35,-1483.45 2137.31,-1233.98l0 -0.01zm-790.68 2481.41l-380.38 0c0,394.45 319.77,714.21 714.21,714.21 394.46,0 714.23,-319.77 714.23,-714.21l0 -543.43 0 -254.54 0 -797.99c0,-394.43 -319.77,-714.21 -714.23,-714.21 -394.44,0 -714.21,319.78 -714.21,714.21l380.38 0c0,-184.36 149.45,-333.83 333.83,-333.83 184.37,0 333.84,149.47 333.84,333.83l0 166.49c-99.63,-52.79 -213.22,-82.72 -333.84,-82.72 -394.44,0 -714.21,319.77 -714.21,714.21 0,394.45 319.77,714.21 714.21,714.21 120.62,0 234.21,-29.93 333.84,-82.71l0 166.47c0,184.37 -149.47,333.83 -333.84,333.83 -184.37,0 -333.83,-149.46 -333.83,-333.83l0 0zm333.83 -1131.81c184.37,0 333.84,149.46 333.84,333.84 0,184.37 -149.47,333.83 -333.84,333.83 -184.37,0 -333.83,-149.46 -333.83,-333.83 0,-184.38 149.45,-333.84 333.83,-333.84zm1556.21 733.66c-331.89,-249.26 -556.12,-723.94 -556.12,-1268.6 0,-128.28 12.49,-252.66 35.85,-371.16l520.28 1639.76 -0.01 0z"/>
  <path class="fil1" d="M4913.6 967.09c-40.48,-18.69 -85.38,-32.96 -134.71,-42.84 -49.33,-9.86 -97.85,-14.79 -145.61,-14.79 -123.55,0 -220.12,36.85 -289.69,110.84 -69.56,73.72 -104.32,168.45 -104.32,283.97 0,114.46 32.96,207.91 98.88,280.07 65.94,72.4 156,108.5 270.2,108.5 54,0 101.75,-5.19 143.29,-15.58l0 -285.01 -230.51 0 0 -171.31 439.18 0 0 586.87c-60.22,16.88 -120.95,30.37 -182.2,40.75 -61.25,10.38 -117.85,15.58 -169.76,15.58 -181.69,0 -326.52,-45.95 -434.51,-138.09 -107.98,-91.87 -161.97,-227.36 -161.97,-406.22 0,-185.05 52.69,-328.33 158.07,-429.58 105.38,-101.48 251.51,-152.1 438.39,-152.1 65.41,0 121.48,3.37 168.21,10.11 46.72,6.75 97.09,18.44 151.07,35.04l-14.04 183.78 0 -0.01z"/>
  <path class="fil1" d="M5175.25 1041.85l185.32 0 0 182.2c7.28,-44.63 31.92,-89.27 73.96,-133.92 42.07,-44.64 91.64,-66.97 148.74,-66.97 10.37,0 20.5,0.27 30.36,0.79 9.86,0.5 21.03,2.33 33.48,5.45l0 210.24c-8.3,-5.19 -21.03,-9.34 -38.14,-12.45 -17.14,-3.12 -35.58,-4.66 -55.29,-4.66 -57.11,0 -99.67,24.13 -127.7,72.41 -28.05,48.29 -42.04,133.17 -42.04,254.62l0 294.35 -208.69 0 0 -802.05 0 -0.01z"/>
  <path class="fil1" d="M5812.21 1083.89c88.26,-40.48 181.18,-60.74 278.77,-60.74 122.52,0 210.77,26.49 264.76,79.44 53.98,52.95 80.99,139.12 80.99,258.52l0 102.78 0 200.9 12.45 179.1 -183.78 0c-4.16,-20.77 -6.73,-41.26 -7.78,-61.51 -1.04,-20.25 -1.56,-39.71 -1.56,-58.41 -24.93,44.13 -60.48,78.39 -106.68,103.06 -46.2,24.66 -94.22,37.12 -144.06,37.12 -75.79,0 -141.46,-21.3 -197.01,-64.11 -55.55,-42.57 -83.32,-100.98 -83.32,-174.94 0,-57.11 12.21,-104.61 36.6,-141.98 24.41,-37.64 56.06,-65.94 95,-85.14 38.93,-19.47 82.01,-32.45 129.26,-39.2 47.25,-6.75 95.78,-10.12 145.61,-10.12l115.25 0c0,-62.3 -14.27,-106.69 -42.82,-133.15 -28.55,-26.49 -74.49,-39.71 -137.83,-39.71 -43.61,0 -86.44,7.53 -128.48,22.58 -42.04,15.06 -81.77,36.6 -119.13,64.63l-6.23 -179.1 -0.02 -0zm244.5 627.62c31.15,0 58.93,-6.22 83.32,-18.67 24.39,-12.73 44.91,-29.86 61.51,-51.92 16.61,-21.8 28.29,-46.97 35.04,-75.28 6.75,-28.03 10.12,-58.91 10.12,-92.41l-90.33 0c-65.4,0 -120.42,9.35 -165.08,28.29 -44.64,18.69 -66.96,55.81 -66.96,111.1 0,33.48 11.92,58.4 35.81,74.49 23.87,16.35 56.06,24.39 96.55,24.39l0.02 0z"/>
  <path class="fil1" d="M6718.61 1194.46l-154.17 0 0 -152.61 154.17 0 0 -112.13c0,-82.04 22.31,-147.96 66.97,-197.8 44.64,-49.83 107.45,-74.75 188.44,-74.75 26.99,0 53.21,1.56 78.65,4.68 25.43,3.11 50.09,7.26 73.98,12.45l-17.14 172.87c-15.56,-9.34 -31.13,-16.35 -46.7,-21.03 -15.58,-4.67 -30.11,-7.01 -43.63,-7.01 -32.17,0 -55.55,11.68 -70.06,35.04 -14.55,23.37 -21.81,52.7 -21.81,88l0 99.67 182.2 0 0 152.61 -182.2 0 0 649.43 -208.69 0 0 -649.43 -0.01 0z"/>
  <path class="fil1" d="M7252.79 1041.85l208.69 0 0 802.05 -208.69 0 0 -802.05zm0 -345.74l208.69 0 0 199.33 -208.69 0 0 -199.33z"/>
  <path class="fil1" d="M8201.23 1214.71c-21.8,-10.37 -42.82,-17.9 -63.07,-22.58 -20.25,-4.68 -46.46,-7.01 -78.65,-7.01 -64.38,0 -115.76,23.37 -154.19,70.34 -38.41,46.72 -57.62,108.23 -57.62,184.28 0,78.12 18.43,141.46 55.29,189.75 36.87,48.53 90.59,72.67 161.18,72.67 26.99,0 54.25,-3.9 81.76,-11.42 27.52,-7.53 53.73,-16.61 78.66,-27.52l9.34 174.43c-29.06,9.34 -60.22,16.1 -93.45,20.24 -33.22,4.16 -71.64,6.23 -115.24,6.23 -126.66,0 -224.27,-38.94 -292.79,-117.06 -68.52,-77.88 -102.78,-180.4 -102.78,-307.34 0,-120.69 34.27,-220.37 102.78,-298.75 68.52,-78.65 163.52,-117.85 285.01,-117.85 75.8,0 143.28,8.83 202.44,26.49l-18.67 165.06 0.01 0.02z"/>
  <path class="fil2" d="M8690.26 756.84l355.09 0 418.93 1087.05 -317.69 0 -80.99 -232.05 -408.04 0 -85.66 232.05 -294.35 0 412.71 -1087.05zm177.53 224.27l-143.28 425.16 272.55 0 -129.27 -425.16z"/>
  <path class="fil2" d="M9570.17 756.84l517.04 0c101.76,0 185.59,23.37 251.53,70.1 65.92,46.7 98.9,114.72 98.9,204.02 0,150.54 -69.58,241.91 -208.69,274.09 32.19,9.35 53.21,21.3 63.07,35.81 9.88,14.54 40.24,83.6 91.12,207.14l105.89 295.9 -302.12 0 -62.3 -196.22c-30.11,-94.49 -58.4,-157.04 -84.88,-187.67 -26.47,-30.63 -66.19,-45.93 -119.13,-45.93l-60.74 0 0 429.82 -289.67 0 0 -1087.05 -0.03 0zm289.67 451.65l76.32 0c66.46,0 118.36,-7.27 155.73,-21.81 37.38,-14.54 56.06,-49.33 56.06,-104.35 0,-46.72 -18.94,-78.38 -56.84,-95 -37.89,-16.6 -89.56,-24.92 -154.96,-24.92l-76.32 0 0 246.07 0.01 0z"/>
  <polygon class="fil2" points="10803.62,971.76 10535.74,971.76 10535.74,756.84 11361.16,756.84 11361.16,971.76 11093.29,971.76 11093.29,1843.89 10803.62,1843.89 "/>
  <polygon class="fil2" points="11474.85,756.84 12241.07,756.84 12241.07,962.41 11764.51,962.41 11764.51,1186.68 12214.59,1186.68 12214.59,1392.25 11764.51,1392.25 11764.51,1638.31 12258.21,1638.31 12258.21,1843.89 11474.85,1843.89 "/>
  <path class="fil1" d="M5181.92 2412.05c-19.05,-8.79 -40.16,-15.5 -63.35,-20.14 -23.19,-4.64 -46.01,-6.96 -68.48,-6.96 -58.1,0 -103.5,17.34 -136.22,52.12 -32.72,34.67 -49.08,79.21 -49.08,133.54 0,53.83 15.5,97.77 46.5,131.71 31.02,34.06 73.37,51.02 127.08,51.02 25.39,0 47.84,-2.44 67.38,-7.32l0 -134.03 -108.41 0 0 -80.56 206.54 0 0 276c-28.31,7.93 -56.88,14.27 -85.7,19.17 -28.8,4.89 -55.41,7.32 -79.82,7.32 -85.44,0 -153.56,-21.6 -204.34,-64.93 -50.76,-43.22 -76.16,-106.93 -76.16,-191.03 0,-87.03 24.78,-154.41 74.34,-202.02 49.56,-47.72 118.28,-71.53 206.17,-71.53 30.74,0 57.13,1.58 79.08,4.76 21.98,3.19 45.66,8.67 71.05,16.47l-6.59 86.43 0.02 -0.02z"/>
  <path class="fil1" d="M5405.3 2531.42l33.69 0c42.48,0 71.17,-6.1 86.05,-18.31 14.9,-12.21 22.34,-29.78 22.34,-52.73 0,-27.34 -9.63,-45.29 -28.93,-53.83 -19.31,-8.54 -45.77,-12.81 -79.48,-12.81l-33.69 0 0 137.69 0.01 0zm-102.54 -218.25l110.6 0c55.66,0 98.15,1.96 127.43,5.86 29.29,3.91 55.55,15.86 78.73,35.89 23.19,20.01 34.78,52.24 34.78,96.67 0,30.77 -9.52,57.13 -28.56,79.11 -19.05,21.97 -44.67,35.16 -76.89,39.55 12.2,0.49 22.58,5.74 31.12,15.74 8.55,10 16.23,22.82 23.07,38.45l82.04 199.94 -114.24 0 -61.53 -159.66c-7.82,-20.02 -16.37,-33.81 -25.64,-41.38 -9.27,-7.57 -24.41,-11.35 -45.4,-11.35l-32.96 0 0 212.4 -102.54 0 0 -511.2 0 -0.02z"/>
  <path class="fil1" d="M5961.91 2415.71l-75.44 210.93 149.4 0 -73.96 -210.93zm-56.39 -102.54l115.71 0 200.67 511.2 -113.51 0 -43.95 -117.17 -207.27 0 -44.67 117.17 -106.21 0 199.22 -511.2 0 0zm59.32 -139.89l100.33 0 -100.33 106.93 -60.78 0 60.78 -106.93z"/>
  <polygon class="fil1" points="6287.83,2313.17 6571.99,2313.17 6571.99,2393.74 6390.36,2393.74 6390.36,2519.72 6563.2,2519.72 6563.2,2600.26 6390.36,2600.26 6390.36,2824.38 6287.83,2824.38 "/>
  <polygon class="fil1" points="6645.23,2313.17 6747.77,2313.17 6747.77,2824.38 6645.23,2824.38 "/>
  <path class="fil1" d="M7229.67 2817.79c-19.03,4.39 -39.06,8.18 -60.06,11.35 -21,3.17 -39.79,4.76 -56.39,4.76 -85.44,0 -153.55,-21.6 -204.34,-64.93 -50.78,-43.22 -76.16,-106.93 -76.16,-191.03 0,-87.03 24.78,-154.41 74.34,-202.02 49.56,-47.72 118.28,-71.53 206.17,-71.53 17.58,0 36.74,1.83 57.49,5.5 20.75,3.67 40.16,8.91 58.23,15.74l-7.32 86.43c-18.56,-10.74 -36.38,-17.94 -53.46,-21.6 -17.09,-3.66 -36.14,-5.5 -57.13,-5.5 -51.76,0 -93.26,17.58 -124.5,52.85 -31.24,35.16 -46.85,79.46 -46.85,132.8 0,53.83 15.49,97.77 46.5,131.71 31,34.06 73.37,51.02 127.06,51.02 20.5,0 41.38,-2.07 62.61,-6.1 21.24,-4.03 37.73,-9.28 49.44,-15.86l4.39 86.42 -0 0z"/>
  <path class="fil1" d="M7507.99 2415.71l-75.44 210.93 149.42 0 -73.98 -210.93 -0.01 0zm-56.39 -102.54l115.71 0 200.69 511.2 -113.52 0 -43.95 -117.17 -207.27 0 -44.68 117.17 -106.21 0 199.22 -511.2z"/>
  <path class="fil1" d="M8240.37 2415.71l-75.44 210.93 149.42 0 -73.98 -210.93zm-56.39 -102.54l115.72 0 200.67 511.2 -113.52 0 -43.95 -117.17 -207.27 0 -44.67 117.17 -106.18 0 199.21 -511.2 -0.01 0z"/>
  <path class="fil1" d="M8660.03 2549.73l35.91 0c29.77,0 53.45,-5.73 71.03,-17.21 17.58,-11.47 26.37,-31.12 26.37,-58.95 0,-27.84 -8.91,-48.09 -26.72,-60.78 -17.83,-12.7 -41.38,-19.04 -70.67,-19.04l-35.91 0 0 155.99 0 -0zm-102.52 -236.56l129.61 0c63.98,0 115.49,11.6 154.55,34.78 39.06,23.19 58.59,63.1 58.59,119.75 0,56.14 -17.94,97.28 -53.83,123.41 -35.87,26.11 -83.61,39.18 -143.17,39.18l-43.22 0 0 194.09 -102.52 0 0 -511.2 -0.01 0z"/>
  <polygon class="fil1" points="8973.5,2313.17 9076.03,2313.17 9076.03,2743.82 9274.51,2743.82 9274.51,2824.38 8973.5,2824.38 "/>
  <polygon class="fil1" points="9330.9,2313.17 9433.44,2313.17 9433.44,2824.38 9330.9,2824.38 "/>
  <path class="fil1" d="M9915.34 2817.79c-19.03,4.39 -39.06,8.18 -60.06,11.35 -21,3.17 -39.79,4.76 -56.39,4.76 -85.44,0 -153.56,-21.6 -204.34,-64.93 -50.78,-43.22 -76.16,-106.93 -76.16,-191.03 0,-87.03 24.78,-154.41 74.34,-202.02 49.56,-47.72 118.28,-71.53 206.17,-71.53 17.58,0 36.74,1.83 57.49,5.5 20.75,3.67 40.16,8.91 58.23,15.74l-7.32 86.43c-18.56,-10.74 -36.38,-17.94 -53.46,-21.6 -17.09,-3.66 -36.14,-5.5 -57.13,-5.5 -51.76,0 -93.26,17.58 -124.5,52.85 -31.24,35.16 -46.88,79.46 -46.88,132.8 0,53.83 15.5,97.77 46.51,131.71 31,34.06 73.37,51.02 127.06,51.02 20.5,0 41.38,-2.07 62.61,-6.1 21.24,-4.03 37.73,-9.28 49.44,-15.86l4.39 86.42 0 0z"/>
  <path class="fil1" d="M10193.65 2415.71l-75.44 210.93 149.4 0 -73.96 -210.93zm-56.39 -102.54l115.72 0 200.67 511.2 -113.52 0 -43.95 -117.17 -207.27 0 -44.67 117.17 -106.21 0 199.22 -511.2 0 0z"/>
  <path class="fil1" d="M10519.56 2313.17l139.89 0c89.35,0 160.86,19.04 214.59,57.13 53.71,38.09 80.56,104.25 80.56,198.48 0,93.75 -26.98,159.78 -80.93,198.12 -53.95,38.32 -125.35,57.49 -214.22,57.49l-139.89 0 0 -511.2 0 -0.01zm102.54 430.65l57.13 0c45.4,0 84.83,-15.74 118.28,-47.24 33.45,-31.5 50.17,-74.09 50.17,-127.81 0,-52.73 -16.72,-95.09 -50.17,-127.07 -33.44,-31.99 -72.87,-47.97 -118.28,-47.97l-57.13 0 0 350.08 0 0.01z"/>
  <path class="fil1" d="M11251.21 2415.71l-75.44 210.93 149.4 0 -73.98 -210.93 0.01 0zm-56.39 -102.54l115.72 0 200.67 511.2 -113.53 0 -43.95 -117.17 -207.27 0 -44.67 117.17 -106.18 0 199.21 -511.2 0 0z"/>
 </g>
</svg>
